<svg xmlns="http://www.w3.org/2000/svg" width="75" viewBox="0 0 75 75" height="75" version="1.0"><defs><clipPath id="a"><path d="M 0.273438 43 L 24 43 L 24 75 L 0.273438 75 Z M 0.273438 43"/></clipPath><clipPath id="b"><path d="M 51 43 L 74.523438 43 L 74.523438 75 L 51 75 Z M 51 43"/></clipPath></defs><g clip-path="url(#a)"><path d="M 1.433594 74.898438 L 22.296875 74.898438 C 22.617188 74.898438 22.925781 74.765625 23.144531 74.53125 C 23.363281 74.296875 23.476562 73.984375 23.457031 73.664062 L 22.992188 66.257812 C 22.960938 65.761719 22.621094 65.34375 22.144531 65.210938 L 16.132812 63.554688 C 16.007812 63.191406 15.832031 62.644531 15.65625 62.066406 C 17.988281 60.695312 19.179688 57.789062 19.199219 53.40625 L 19.199219 53.371094 C 19.199219 53.207031 19.179688 53.046875 19.175781 52.886719 C 19.714844 52.21875 19.835938 51.585938 19.796875 51.082031 L 19.761719 50.613281 C 19.578125 48.003906 19.226562 43.140625 11.152344 43.539062 C 7.558594 43.710938 5.765625 44.40625 5.34375 45.789062 C 5.300781 45.9375 5.273438 46.085938 5.265625 46.234375 C 5.105469 46.285156 4.945312 46.355469 4.789062 46.449219 C 3.957031 46.945312 3.492188 47.859375 3.40625 49.171875 C 3.230469 49.792969 2.980469 51.460938 4.398438 53.46875 C 4.429688 57.894531 5.65625 60.804688 8.054688 62.136719 C 7.886719 62.6875 7.71875 63.207031 7.597656 63.554688 L 1.582031 65.210938 C 1.101562 65.34375 0.761719 65.765625 0.730469 66.257812 L 0.273438 73.664062 C 0.253906 73.984375 0.367188 74.300781 0.585938 74.53125 C 0.804688 74.765625 1.113281 74.898438 1.433594 74.898438 Z M 5.628906 49.816406 C 5.679688 49.695312 5.707031 49.5625 5.714844 49.429688 C 5.742188 48.738281 5.910156 48.488281 5.96875 48.453125 C 6.082031 48.382812 6.433594 48.449219 6.632812 48.542969 C 7.167969 48.808594 7.820312 48.625 8.136719 48.109375 C 8.449219 47.597656 8.324219 46.929688 7.84375 46.570312 C 7.8125 46.546875 7.761719 46.5 7.710938 46.449219 C 8.070312 46.273438 9.003906 45.96875 11.265625 45.859375 C 17.078125 45.578125 17.257812 48.101562 17.449219 50.777344 L 17.484375 51.246094 C 17.429688 51.492188 16.507812 52.402344 14.039062 53.121094 C 11.0625 53.992188 8 53.957031 7.070312 53.042969 C 5.214844 51.210938 5.597656 49.917969 5.628906 49.816406 Z M 6.855469 55.574219 C 7.746094 55.917969 8.8125 56.066406 9.945312 56.066406 C 12.34375 56.066406 15.023438 55.40625 16.835938 54.554688 C 16.835938 54.554688 16.839844 54.550781 16.84375 54.550781 C 16.546875 59.375 14.554688 60.101562 13.867188 60.351562 C 13.296875 60.558594 12.621094 60.660156 11.796875 60.660156 C 11 60.660156 10.371094 60.574219 9.824219 60.390625 C 9.167969 60.171875 7.363281 59.542969 6.855469 55.574219 Z M 2.996094 67.234375 L 8.519531 65.710938 C 9.335938 65.667969 9.582031 65.164062 10.261719 62.875 C 10.273438 62.878906 10.285156 62.878906 10.300781 62.878906 C 10.496094 62.910156 10.703125 62.929688 10.914062 62.949219 C 11 62.953125 11.082031 62.960938 11.171875 62.964844 C 11.375 62.976562 11.578125 62.984375 11.796875 62.984375 C 11.800781 62.984375 11.804688 62.984375 11.808594 62.984375 C 11.9375 62.984375 12.066406 62.976562 12.199219 62.96875 C 12.347656 62.964844 12.496094 62.960938 12.640625 62.949219 C 12.734375 62.945312 12.820312 62.929688 12.914062 62.921875 C 13.074219 62.902344 13.238281 62.886719 13.394531 62.859375 C 13.417969 62.855469 13.441406 62.855469 13.464844 62.851562 C 14.148438 65.15625 14.394531 65.664062 15.210938 65.710938 L 20.730469 67.234375 L 21.066406 72.574219 L 2.664062 72.574219 Z M 2.996094 67.234375"/></g><g clip-path="url(#b)"><path d="M 54.976562 50.613281 L 54.941406 51.082031 C 54.902344 51.585938 55.019531 52.21875 55.5625 52.886719 C 55.554688 53.046875 55.539062 53.207031 55.539062 53.371094 C 55.539062 53.375 55.539062 53.410156 55.539062 53.414062 C 55.558594 57.789062 56.75 60.691406 59.082031 62.066406 C 58.90625 62.644531 58.730469 63.191406 58.605469 63.554688 L 52.59375 65.210938 C 52.117188 65.34375 51.773438 65.761719 51.742188 66.257812 L 51.28125 73.664062 C 51.261719 73.984375 51.375 74.296875 51.59375 74.53125 C 51.8125 74.765625 52.121094 74.898438 52.4375 74.898438 L 73.304688 74.898438 C 73.625 74.898438 73.929688 74.765625 74.148438 74.53125 C 74.367188 74.300781 74.480469 73.984375 74.460938 73.664062 L 74.007812 66.257812 C 73.976562 65.765625 73.632812 65.34375 73.15625 65.210938 L 67.140625 63.554688 C 67.019531 63.207031 66.851562 62.6875 66.683594 62.136719 C 69.078125 60.804688 70.308594 57.898438 70.339844 53.46875 C 71.757812 51.460938 71.507812 49.792969 71.332031 49.171875 C 71.246094 47.859375 70.777344 46.945312 69.945312 46.449219 C 69.789062 46.355469 69.632812 46.285156 69.472656 46.234375 C 69.464844 46.085938 69.4375 45.9375 69.390625 45.789062 C 68.972656 44.40625 67.179688 43.710938 63.585938 43.539062 C 55.492188 43.144531 55.160156 48.003906 54.976562 50.613281 Z M 71.742188 67.234375 L 72.074219 72.574219 L 53.671875 72.574219 L 54.007812 67.234375 L 59.527344 65.710938 C 60.34375 65.664062 60.589844 65.15625 61.273438 62.851562 C 61.296875 62.855469 61.320312 62.855469 61.34375 62.859375 C 61.5 62.886719 61.664062 62.902344 61.828125 62.921875 C 61.921875 62.929688 62.003906 62.945312 62.097656 62.949219 C 62.242188 62.960938 62.390625 62.964844 62.539062 62.96875 C 62.671875 62.976562 62.800781 62.984375 62.929688 62.984375 C 62.933594 62.984375 62.9375 62.984375 62.941406 62.984375 C 63.15625 62.984375 63.355469 62.976562 63.554688 62.964844 C 63.648438 62.960938 63.738281 62.953125 63.828125 62.945312 C 64.039062 62.929688 64.242188 62.910156 64.4375 62.878906 C 64.449219 62.878906 64.464844 62.878906 64.476562 62.875 C 65.15625 65.164062 65.402344 65.667969 66.21875 65.710938 Z M 64.910156 60.390625 C 64.367188 60.574219 63.738281 60.660156 62.941406 60.660156 C 62.117188 60.660156 61.441406 60.558594 60.871094 60.355469 C 60.183594 60.105469 58.1875 59.375 57.894531 54.550781 C 57.898438 54.550781 57.898438 54.554688 57.902344 54.554688 C 59.714844 55.40625 62.394531 56.066406 64.792969 56.066406 C 65.925781 56.066406 66.992188 55.917969 67.878906 55.574219 C 67.375 59.542969 65.570312 60.171875 64.910156 60.390625 Z M 57.289062 50.777344 C 57.46875 48.242188 57.636719 45.839844 62.621094 45.839844 C 62.890625 45.839844 63.175781 45.84375 63.472656 45.859375 C 65.734375 45.96875 66.667969 46.273438 67.027344 46.449219 C 66.984375 46.496094 66.9375 46.539062 66.894531 46.570312 C 66.417969 46.925781 66.296875 47.585938 66.601562 48.097656 C 66.90625 48.609375 67.554688 48.800781 68.09375 48.546875 C 68.304688 48.449219 68.660156 48.386719 68.765625 48.453125 C 68.828125 48.488281 68.996094 48.738281 69.023438 49.429688 C 69.03125 49.574219 69.046875 49.679688 69.105469 49.8125 C 69.125 49.867188 69.558594 51.175781 67.667969 53.042969 C 66.738281 53.957031 63.675781 53.992188 60.699219 53.121094 C 58.230469 52.402344 57.308594 51.492188 57.253906 51.273438 Z M 57.289062 50.777344"/></g><path d="M 25 24.371094 L 29.234375 23.125 C 29.414062 23.894531 29.554688 24.757812 29.671875 25.644531 L 32.011719 25.644531 C 31.871094 24.542969 31.691406 23.460938 31.460938 22.488281 L 31.949219 19.996094 C 32.359375 20.058594 32.789062 20.101562 33.246094 20.101562 C 33.25 20.101562 33.25 20.101562 33.25 20.101562 C 33.75 20.101562 34.222656 20.054688 34.671875 19.980469 L 35.160156 22.488281 C 34.933594 23.460938 34.75 24.542969 34.613281 25.644531 L 36.949219 25.644531 C 37.066406 24.757812 37.210938 23.894531 37.386719 23.125 L 41.621094 24.371094 L 41.695312 25.644531 L 44.019531 25.644531 L 43.890625 23.417969 C 43.859375 22.929688 43.527344 22.507812 43.058594 22.371094 L 37.164062 20.636719 L 36.878906 19.1875 C 39.039062 17.875 40.179688 15.132812 40.285156 10.988281 C 40.335938 10.96875 40.386719 10.957031 40.4375 10.933594 C 40.785156 10.765625 41.363281 10.308594 41.273438 9.175781 L 41.261719 9 C 41.058594 6.34375 40.597656 0.128906 32.632812 0.527344 C 29.246094 0.699219 27.539062 1.386719 27.105469 2.75 C 27.050781 2.917969 27.019531 3.089844 27.011719 3.257812 C 26.890625 3.300781 26.769531 3.359375 26.648438 3.425781 C 25.785156 3.925781 25.3125 4.902344 25.25 6.324219 C 25.15625 7.289062 25.097656 9.417969 26.199219 10.328125 C 26.199219 10.375 26.195312 10.421875 26.195312 10.46875 C 26.210938 14.976562 27.402344 17.90625 29.730469 19.25 L 29.460938 20.636719 L 23.5625 22.371094 C 23.09375 22.507812 22.761719 22.929688 22.734375 23.417969 L 22.605469 25.644531 L 24.925781 25.644531 Z M 27.804688 8.046875 C 27.730469 8.019531 27.652344 8.003906 27.574219 7.992188 C 27.523438 7.570312 27.511719 7.015625 27.5625 6.519531 C 27.5625 6.496094 27.566406 6.472656 27.566406 6.449219 C 27.59375 5.726562 27.761719 5.472656 27.804688 5.441406 C 27.871094 5.410156 28.140625 5.453125 28.3125 5.539062 C 28.839844 5.820312 29.496094 5.652344 29.828125 5.148438 C 30.15625 4.648438 30.046875 3.976562 29.578125 3.601562 C 29.542969 3.574219 29.480469 3.507812 29.421875 3.441406 C 29.730469 3.273438 30.582031 2.960938 32.75 2.847656 C 37.390625 2.597656 38.460938 5 38.832031 7.960938 C 38.472656 7.648438 38.113281 7.3125 37.871094 7.089844 C 36.75 6.046875 36.070312 5.417969 35.207031 6.046875 C 35.019531 6.179688 34.675781 6.511719 34.71875 7.105469 C 34.117188 6.941406 33.277344 6.535156 32.757812 5.925781 C 32.28125 5.367188 31.707031 4.78125 30.898438 4.84375 C 30.085938 4.90625 29.691406 5.554688 29.34375 6.125 C 29.035156 6.628906 28.613281 7.3125 27.804688 8.046875 Z M 28.511719 10.453125 C 28.511719 10.4375 28.515625 10.414062 28.515625 10.398438 C 28.769531 10.25 29.03125 10.0625 29.296875 9.824219 C 30.242188 8.988281 30.785156 8.199219 31.152344 7.609375 C 32.515625 9.050781 35.140625 10.046875 36.472656 9.195312 C 36.523438 9.164062 36.570312 9.128906 36.617188 9.089844 C 37.117188 9.550781 37.566406 9.949219 37.980469 10.265625 C 37.980469 10.332031 37.984375 10.390625 37.984375 10.460938 C 37.960938 17.738281 34.808594 17.777344 33.269531 17.777344 C 33.261719 17.777344 33.253906 17.777344 33.246094 17.777344 C 31.71875 17.777344 28.539062 17.777344 28.511719 10.453125 Z M 28.511719 10.453125"/><path d="M 20.847656 35.902344 L 20.847656 55.71875 C 20.847656 56.363281 21.367188 56.882812 22.007812 56.882812 L 27.859375 56.882812 C 27.738281 56.152344 27.652344 55.378906 27.613281 54.558594 L 23.167969 54.558594 L 23.167969 35.960938 L 51.570312 35.960938 L 51.570312 54.558594 L 46.988281 54.558594 C 46.945312 55.378906 46.859375 56.152344 46.734375 56.882812 L 52.730469 56.882812 C 53.367188 56.882812 53.886719 56.363281 53.886719 55.71875 L 53.886719 35.902344 C 55.777344 35.585938 57.222656 33.945312 57.222656 31.964844 C 57.222656 29.761719 55.433594 27.96875 53.234375 27.96875 L 21.5 27.96875 C 19.304688 27.96875 17.515625 29.761719 17.515625 31.964844 C 17.515625 33.945312 18.960938 35.585938 20.847656 35.902344 Z M 21.5 30.292969 L 53.234375 30.292969 C 54.15625 30.292969 54.902344 31.042969 54.902344 31.964844 C 54.902344 32.886719 54.15625 33.632812 53.234375 33.632812 L 21.5 33.632812 C 20.582031 33.632812 19.835938 32.886719 19.835938 31.964844 C 19.835938 31.042969 20.582031 30.292969 21.5 30.292969 Z M 21.5 30.292969"/><path d="M 43.78125 16.976562 C 44.257812 17.800781 45.125 18.265625 46.011719 18.265625 C 46.449219 18.265625 46.890625 18.152344 47.292969 17.917969 C 47.332031 17.898438 47.363281 17.867188 47.398438 17.84375 L 49.488281 19.113281 L 49.488281 25.644531 L 51.804688 25.644531 L 51.804688 18.460938 C 51.804688 18.054688 51.59375 17.675781 51.246094 17.464844 L 48.578125 15.84375 C 48.609375 15.339844 48.492188 14.839844 48.238281 14.398438 L 48.199219 14.332031 C 47.492188 13.101562 45.914062 12.679688 44.6875 13.390625 C 44.089844 13.734375 43.664062 14.289062 43.488281 14.957031 C 43.308594 15.621094 43.402344 16.316406 43.746094 16.910156 Z M 43.78125 16.976562"/><path d="M 27.085938 65.210938 C 26.605469 65.34375 26.265625 65.765625 26.234375 66.257812 L 25.777344 73.664062 C 25.757812 73.984375 25.871094 74.300781 26.089844 74.53125 C 26.308594 74.765625 26.617188 74.898438 26.933594 74.898438 L 47.800781 74.898438 C 48.121094 74.898438 48.429688 74.765625 48.648438 74.53125 C 48.867188 74.296875 48.980469 73.984375 48.957031 73.664062 L 48.496094 66.257812 C 48.464844 65.761719 48.125 65.34375 47.648438 65.210938 L 41.636719 63.554688 C 41.511719 63.191406 41.335938 62.644531 41.160156 62.066406 C 43.492188 60.695312 44.683594 57.789062 44.703125 53.40625 L 44.703125 53.371094 C 44.703125 53.207031 44.683594 53.046875 44.675781 52.886719 C 45.21875 52.21875 45.339844 51.585938 45.300781 51.082031 L 45.265625 50.613281 C 45.078125 48.003906 44.730469 43.140625 36.65625 43.539062 C 33.0625 43.710938 31.269531 44.40625 30.847656 45.789062 C 30.800781 45.9375 30.777344 46.085938 30.769531 46.234375 C 30.609375 46.285156 30.449219 46.355469 30.292969 46.449219 C 29.460938 46.945312 28.996094 47.859375 28.910156 49.171875 C 28.734375 49.792969 28.484375 51.460938 29.902344 53.46875 C 29.929688 57.894531 31.160156 60.804688 33.558594 62.136719 C 33.390625 62.6875 33.222656 63.207031 33.101562 63.554688 Z M 31.132812 49.816406 C 31.183594 49.695312 31.210938 49.5625 31.21875 49.429688 C 31.246094 48.738281 31.410156 48.488281 31.472656 48.453125 C 31.585938 48.382812 31.9375 48.449219 32.136719 48.542969 C 32.671875 48.808594 33.324219 48.625 33.636719 48.109375 C 33.953125 47.597656 33.824219 46.929688 33.34375 46.570312 C 33.3125 46.546875 33.265625 46.5 33.214844 46.449219 C 33.574219 46.273438 34.507812 45.96875 36.769531 45.859375 C 42.578125 45.578125 42.761719 48.101562 42.949219 50.777344 L 42.988281 51.246094 C 42.933594 51.492188 42.007812 52.402344 39.542969 53.121094 C 36.566406 53.992188 33.503906 53.957031 32.574219 53.042969 C 30.71875 51.210938 31.101562 49.917969 31.132812 49.816406 Z M 32.359375 55.574219 C 33.246094 55.917969 34.316406 56.066406 35.449219 56.066406 C 37.847656 56.066406 40.527344 55.40625 42.339844 54.554688 C 42.339844 54.554688 42.34375 54.550781 42.347656 54.550781 C 42.050781 59.375 40.058594 60.101562 39.371094 60.351562 C 38.800781 60.558594 38.125 60.660156 37.300781 60.660156 C 36.5 60.660156 35.875 60.574219 35.328125 60.390625 C 34.671875 60.171875 32.867188 59.542969 32.359375 55.574219 Z M 34.023438 65.710938 C 34.839844 65.667969 35.082031 65.164062 35.761719 62.875 C 35.777344 62.878906 35.789062 62.878906 35.804688 62.878906 C 36 62.910156 36.203125 62.929688 36.414062 62.949219 C 36.503906 62.953125 36.589844 62.960938 36.675781 62.964844 C 36.878906 62.976562 37.082031 62.984375 37.300781 62.984375 C 37.304688 62.984375 37.308594 62.984375 37.3125 62.984375 C 37.441406 62.984375 37.570312 62.976562 37.703125 62.96875 C 37.851562 62.964844 38 62.960938 38.144531 62.949219 C 38.238281 62.945312 38.324219 62.929688 38.414062 62.921875 C 38.578125 62.902344 38.742188 62.886719 38.898438 62.859375 C 38.917969 62.855469 38.945312 62.855469 38.96875 62.851562 C 39.652344 65.15625 39.898438 65.664062 40.714844 65.710938 L 46.234375 67.234375 L 46.566406 72.574219 L 28.167969 72.574219 L 28.496094 67.234375 Z M 34.023438 65.710938"/></svg>