<svg xmlns="http://www.w3.org/2000/svg" width="75" viewBox="0 0 75 75" height="75" version="1.0"><defs><clipPath id="a"><path d="M 0 2.386719 L 75 2.386719 L 75 72.886719 L 0 72.886719 Z M 0 2.386719"/></clipPath></defs><g clip-path="url(#a)"><path d="M 9.414062 2.386719 C 8.554688 2.386719 7.851562 3.089844 7.851562 3.953125 L 7.851562 46.253906 C 7.851562 47.113281 8.554688 47.820312 9.414062 47.820312 L 14.65625 47.820312 C 13.734375 47.003906 13.050781 45.925781 12.738281 44.6875 L 10.972656 44.6875 L 10.972656 5.519531 L 64.027344 5.519531 L 64.027344 44.6875 L 62.261719 44.6875 C 61.949219 45.925781 61.265625 47.003906 60.34375 47.820312 L 65.585938 47.820312 C 66.445312 47.820312 67.148438 47.113281 67.148438 46.253906 L 67.148438 3.953125 C 67.148438 3.089844 66.445312 2.386719 65.585938 2.386719 Z M 15.652344 8.652344 C 14.796875 8.652344 14.09375 9.359375 14.09375 10.21875 L 14.09375 38.984375 C 14.90625 38.058594 15.980469 37.371094 17.214844 37.058594 L 17.214844 11.785156 L 57.785156 11.785156 L 57.785156 37.058594 C 59.019531 37.371094 60.09375 38.058594 60.90625 38.984375 L 60.90625 10.21875 C 60.90625 9.359375 60.203125 8.652344 59.347656 8.652344 Z M 22.894531 38.417969 C 23.816406 39.234375 24.5 40.316406 24.8125 41.554688 L 50.1875 41.554688 C 50.5 40.316406 51.183594 39.234375 52.105469 38.417969 Z M 18.773438 39.988281 C 17.621094 39.988281 16.621094 40.613281 16.074219 41.554688 C 15.808594 42.007812 15.652344 42.554688 15.652344 43.121094 C 15.652344 43.683594 15.808594 44.230469 16.074219 44.6875 C 16.210938 44.921875 16.378906 45.136719 16.566406 45.328125 C 16.738281 45.503906 16.9375 45.652344 17.148438 45.78125 C 17.148438 45.78125 17.148438 45.785156 17.148438 45.785156 C 16.464844 52.929688 9.222656 58.785156 0.0507812 58.785156 L 0.0507812 61.917969 C 7.210938 61.917969 13.597656 58.726562 17.214844 53.855469 L 17.214844 69.753906 L 14.09375 69.753906 L 14.09375 72.886719 L 23.457031 72.886719 L 23.457031 69.753906 L 20.335938 69.753906 L 20.335938 53.855469 C 23.953125 58.726562 30.335938 61.917969 37.5 61.917969 C 44.664062 61.917969 51.046875 58.726562 54.664062 53.855469 L 54.664062 69.753906 L 51.542969 69.753906 L 51.542969 72.886719 L 60.90625 72.886719 L 60.90625 69.753906 L 57.785156 69.753906 L 57.785156 53.855469 C 61.402344 58.726562 67.789062 61.917969 74.949219 61.917969 L 74.949219 58.785156 C 65.777344 58.785156 58.535156 52.929688 57.851562 45.785156 C 57.851562 45.785156 57.851562 45.78125 57.851562 45.78125 C 58.289062 45.507812 58.664062 45.136719 58.925781 44.6875 C 59.191406 44.230469 59.347656 43.683594 59.347656 43.121094 C 59.347656 42.554688 59.191406 42.007812 58.925781 41.554688 C 58.378906 40.613281 57.378906 39.988281 56.226562 39.988281 C 55.359375 39.988281 54.582031 40.335938 54.015625 40.910156 C 53.828125 41.101562 53.660156 41.316406 53.523438 41.554688 C 53.257812 42.007812 53.105469 42.554688 53.105469 43.121094 C 53.105469 43.683594 53.257812 44.230469 53.523438 44.6875 C 53.785156 45.136719 54.160156 45.507812 54.597656 45.78125 C 54.597656 45.78125 54.597656 45.785156 54.597656 45.785156 C 53.914062 52.929688 46.671875 58.785156 37.5 58.785156 C 28.328125 58.785156 21.085938 52.929688 20.402344 45.78125 C 20.839844 45.507812 21.214844 45.136719 21.476562 44.6875 C 21.742188 44.230469 21.894531 43.683594 21.894531 43.121094 C 21.894531 42.554688 21.742188 42.007812 21.476562 41.554688 C 20.929688 40.613281 19.929688 39.988281 18.773438 39.988281 Z M 24.8125 44.6875 C 24.5 45.925781 23.816406 47.003906 22.894531 47.820312 L 52.105469 47.820312 C 51.183594 47.003906 50.5 45.925781 50.1875 44.6875 Z M 24.8125 44.6875"/></g></svg>