<svg xmlns="http://www.w3.org/2000/svg" width="75" viewBox="0 0 75 75" height="75" version="1.0"><defs><clipPath id="a"><path d="M 0 9.613281 L 75 9.613281 L 75 65.113281 L 0 65.113281 Z M 0 9.613281"/></clipPath></defs><path d="M 14.589844 37.421875 C 14.589844 37.574219 14.5625 37.722656 14.503906 37.863281 C 14.445312 38.003906 14.359375 38.128906 14.25 38.234375 C 14.144531 38.34375 14.019531 38.425781 13.875 38.484375 C 13.734375 38.542969 13.585938 38.574219 13.433594 38.574219 C 13.28125 38.574219 13.132812 38.542969 12.992188 38.484375 C 12.847656 38.425781 12.722656 38.34375 12.617188 38.234375 C 12.507812 38.128906 12.421875 38.003906 12.363281 37.863281 C 12.304688 37.722656 12.277344 37.574219 12.277344 37.421875 C 12.277344 37.269531 12.304688 37.121094 12.363281 36.980469 C 12.421875 36.839844 12.507812 36.714844 12.617188 36.605469 C 12.722656 36.5 12.847656 36.414062 12.992188 36.359375 C 13.132812 36.300781 13.28125 36.269531 13.433594 36.269531 C 13.585938 36.269531 13.734375 36.300781 13.875 36.359375 C 14.019531 36.414062 14.144531 36.5 14.25 36.605469 C 14.359375 36.714844 14.445312 36.839844 14.503906 36.980469 C 14.5625 37.121094 14.589844 37.269531 14.589844 37.421875 Z M 14.589844 37.421875"/><g clip-path="url(#a)"><path d="M 74.292969 33.910156 C 73.945312 33.390625 73.195312 33.277344 72.675781 33.621094 L 65.617188 38.515625 L 56.996094 23.429688 L 73.945312 13.066406 C 74.46875 12.722656 74.640625 12.03125 74.351562 11.457031 C 74.003906 10.9375 73.308594 10.765625 72.730469 11.054688 L 55.085938 21.933594 C 55.027344 21.933594 54.914062 21.992188 54.855469 22.050781 C 54.738281 22.105469 54.683594 22.164062 54.625 22.222656 L 49.011719 25.675781 L 38.136719 23.835938 C 36.457031 23.429688 33.738281 23.429688 31.195312 24.640625 C 31.136719 24.582031 31.019531 24.523438 30.90625 24.46875 L 26.046875 22.796875 C 25.929688 22.683594 25.8125 22.625 25.699219 22.566406 C 22.226562 20.957031 18.234375 18.652344 14.359375 16.464844 C 10.195312 14.046875 5.855469 11.628906 2.09375 9.902344 C 1.515625 9.613281 0.820312 9.902344 0.589844 10.476562 C 0.300781 11.054688 0.589844 11.742188 1.167969 11.972656 C 4.8125 13.644531 9.09375 16.0625 13.203125 18.421875 C 14.417969 19.113281 15.691406 19.863281 16.90625 20.550781 L 7.878906 38.226562 C 5.96875 37.59375 4.003906 36.902344 2.035156 36.097656 C 1.457031 35.867188 0.765625 36.15625 0.53125 36.730469 C 0.300781 37.304688 0.589844 37.996094 1.167969 38.226562 C 3.597656 39.261719 6.027344 40.070312 8.34375 40.816406 C 10.425781 41.507812 12.507812 42.257812 14.648438 43.121094 L 20.492188 47.152344 L 19.160156 49.050781 C 17.945312 50.777344 18.292969 53.253906 19.972656 54.519531 L 20.492188 54.921875 C 21.1875 55.441406 21.9375 55.730469 22.804688 55.730469 C 22.980469 55.730469 23.152344 55.730469 23.382812 55.671875 C 23.441406 55.671875 23.5 55.671875 23.558594 55.613281 C 23.730469 56.535156 24.195312 57.398438 25.003906 57.976562 L 25.699219 58.550781 C 26.390625 59.070312 27.144531 59.355469 28.011719 59.355469 C 28.1875 59.355469 28.359375 59.355469 28.53125 59.300781 C 28.648438 60.277344 29.167969 61.199219 29.980469 61.890625 C 30.671875 62.40625 31.425781 62.695312 32.292969 62.695312 C 32.46875 62.695312 32.640625 62.695312 32.871094 62.636719 C 33.277344 62.582031 33.683594 62.464844 34.085938 62.234375 C 34.316406 62.867188 34.722656 63.386719 35.300781 63.847656 L 35.878906 64.308594 C 36.574219 64.824219 37.328125 65.113281 38.195312 65.113281 C 38.367188 65.113281 38.542969 65.113281 38.773438 65.054688 C 39.8125 64.882812 40.683594 64.367188 41.316406 63.5 L 42.476562 61.832031 L 42.996094 62.175781 C 43.574219 62.582031 44.269531 62.8125 44.964844 62.8125 C 45.195312 62.8125 45.425781 62.8125 45.65625 62.753906 C 46.582031 62.582031 47.394531 62.003906 47.914062 61.199219 C 48.203125 60.738281 48.375 60.277344 48.433594 59.757812 L 49.765625 60.625 C 50.34375 61.027344 51.039062 61.257812 51.730469 61.257812 C 51.964844 61.257812 52.195312 61.257812 52.425781 61.199219 C 53.351562 61.027344 54.160156 60.449219 54.683594 59.644531 C 54.972656 59.183594 55.144531 58.722656 55.203125 58.203125 L 55.261719 58.261719 C 55.839844 58.664062 56.535156 58.894531 57.226562 58.894531 C 57.460938 58.894531 57.691406 58.894531 57.921875 58.839844 C 58.847656 58.664062 59.65625 58.089844 60.179688 57.285156 C 61.21875 55.671875 60.8125 53.484375 59.253906 52.332031 C 59.597656 52.042969 59.890625 51.757812 60.179688 51.355469 C 61.160156 49.742188 60.8125 47.613281 59.308594 46.460938 L 60.292969 45.136719 L 74.121094 35.578125 C 74.527344 35.117188 74.699219 34.425781 74.292969 33.910156 Z M 63.707031 39.722656 C 63.707031 39.722656 63.765625 39.78125 63.765625 39.78125 L 59.890625 42.429688 L 50.980469 27.171875 L 55.027344 24.699219 Z M 37.671875 26.078125 C 37.671875 26.078125 37.730469 26.078125 37.730469 26.078125 L 48.78125 27.921875 L 58.09375 43.925781 L 57.226562 45.019531 L 40.449219 34.082031 C 38.832031 32.871094 37.269531 32.355469 35.9375 32.585938 C 34.78125 32.816406 34.144531 33.507812 33.972656 33.792969 L 30.90625 37.652344 C 29.632812 38.976562 28.476562 39.667969 27.550781 39.550781 C 26.796875 39.492188 26.277344 38.917969 25.929688 38.457031 C 26.738281 37.074219 27.261719 35.519531 27.261719 35.464844 L 29.054688 30.050781 C 31.484375 24.753906 37.382812 26.023438 37.671875 26.078125 Z M 23.328125 23.949219 L 14.648438 40.585938 C 13.085938 40.011719 11.582031 39.4375 10.078125 38.917969 L 18.929688 21.644531 C 20.492188 22.511719 21.9375 23.257812 23.328125 23.949219 Z M 22.980469 53.425781 C 22.574219 53.484375 22.226562 53.367188 21.878906 53.136719 L 21.359375 52.734375 C 20.664062 52.21875 20.550781 51.125 21.070312 50.433594 L 24.886719 45.019531 C 25.121094 44.675781 25.464844 44.445312 25.871094 44.386719 C 26.277344 44.328125 26.625 44.445312 26.972656 44.675781 L 27.492188 45.078125 C 28.1875 45.597656 28.300781 46.691406 27.839844 47.382812 L 24.195312 52.5625 L 24.019531 52.792969 C 23.730469 53.136719 23.328125 53.367188 22.980469 53.425781 Z M 27.027344 56.707031 L 26.335938 56.132812 C 25.640625 55.613281 25.523438 54.519531 25.988281 53.828125 L 29.632812 48.648438 L 29.804688 48.417969 C 30.035156 48.070312 30.382812 47.84375 30.789062 47.785156 C 31.195312 47.726562 31.542969 47.84375 31.886719 48.070312 L 32.582031 48.648438 C 33.277344 49.167969 33.390625 50.261719 32.871094 50.949219 L 29.113281 56.421875 C 28.878906 56.765625 28.53125 56.996094 28.128906 57.054688 C 27.722656 57.054688 27.375 56.996094 27.027344 56.707031 Z M 32.410156 60.335938 C 32.003906 60.394531 31.65625 60.277344 31.308594 60.046875 C 30.617188 59.527344 30.5 58.433594 31.019531 57.6875 L 34.839844 52.273438 C 35.070312 51.929688 35.417969 51.699219 35.824219 51.640625 C 35.878906 51.640625 35.9375 51.640625 36.054688 51.640625 C 36.34375 51.640625 36.691406 51.757812 36.921875 51.929688 C 37.617188 52.449219 37.730469 53.484375 37.269531 54.175781 L 34.375 58.261719 C 34.316406 58.320312 34.316406 58.378906 34.261719 58.378906 L 33.390625 59.585938 C 33.160156 60.046875 32.8125 60.277344 32.410156 60.335938 Z M 39.175781 62.121094 C 38.945312 62.464844 38.597656 62.695312 38.195312 62.753906 C 37.789062 62.8125 37.441406 62.695312 37.09375 62.464844 L 36.515625 62.003906 C 35.824219 61.488281 35.707031 60.449219 36.167969 59.757812 L 39.0625 55.671875 C 39.121094 55.613281 39.121094 55.558594 39.175781 55.558594 L 39.410156 55.210938 C 39.640625 54.867188 39.988281 54.636719 40.394531 54.578125 C 40.449219 54.578125 40.507812 54.578125 40.625 54.578125 C 40.914062 54.578125 41.261719 54.691406 41.492188 54.867188 L 42.070312 55.328125 C 42.765625 55.84375 42.878906 56.9375 42.359375 57.628906 Z M 45.773438 59.875 C 45.597656 60.164062 45.308594 60.335938 45.019531 60.449219 C 44.730469 60.507812 44.382812 60.449219 44.09375 60.277344 L 43.632812 59.933594 L 44.328125 58.953125 C 44.617188 58.550781 44.789062 58.089844 44.90625 57.628906 L 45.425781 57.976562 C 46.003906 58.378906 46.179688 59.242188 45.773438 59.875 Z M 58.09375 55.902344 C 57.921875 56.191406 57.632812 56.363281 57.34375 56.476562 C 57.054688 56.535156 56.707031 56.476562 56.417969 56.304688 L 53.929688 54.578125 C 53.8125 54.519531 53.757812 54.40625 53.640625 54.347656 C 53.582031 54.289062 53.523438 54.289062 53.410156 54.234375 L 42.011719 46.34375 C 41.492188 46 40.738281 46.113281 40.394531 46.632812 C 40.046875 47.152344 40.160156 47.898438 40.683594 48.246094 L 52.425781 56.304688 C 52.890625 56.765625 52.945312 57.6875 52.542969 58.320312 C 52.367188 58.609375 52.078125 58.78125 51.789062 58.894531 C 51.5 58.953125 51.152344 58.894531 50.863281 58.664062 L 44.328125 54.289062 C 44.09375 54.003906 43.863281 53.714844 43.515625 53.484375 L 42.9375 53.023438 C 42.128906 52.390625 41.144531 52.101562 40.101562 52.273438 C 39.988281 52.273438 39.871094 52.332031 39.757812 52.332031 C 39.523438 51.46875 39.0625 50.71875 38.367188 50.144531 C 37.558594 49.511719 36.574219 49.28125 35.53125 49.394531 C 35.417969 48.417969 34.898438 47.496094 34.085938 46.804688 L 33.390625 46.230469 C 32.582031 45.597656 31.542969 45.308594 30.558594 45.480469 C 30.5 45.480469 30.441406 45.480469 30.382812 45.539062 C 30.210938 44.617188 29.746094 43.753906 28.9375 43.179688 L 28.417969 42.777344 C 27.605469 42.140625 26.566406 41.855469 25.582031 42.027344 C 24.542969 42.199219 23.671875 42.71875 23.035156 43.582031 L 21.878906 45.195312 L 16.847656 41.738281 C 16.847656 41.683594 16.789062 41.625 16.730469 41.566406 L 25.410156 24.929688 L 28.9375 26.136719 C 28.128906 26.886719 27.433594 27.863281 26.914062 29.074219 C 26.914062 29.128906 26.855469 29.128906 26.855469 29.1875 L 25.0625 34.714844 C 25.0625 34.714844 24.65625 36.097656 23.960938 37.191406 C 23.5 37.996094 23.5 38.976562 24.019531 39.667969 C 24.886719 40.933594 26.101562 41.625 27.375 41.738281 C 29.054688 41.855469 30.789062 40.992188 32.582031 39.089844 C 32.582031 39.089844 32.640625 39.035156 32.640625 39.035156 L 35.765625 35.117188 C 35.765625 35.0625 35.824219 35.0625 35.824219 35.003906 C 35.824219 35.003906 35.996094 34.832031 36.34375 34.773438 C 36.746094 34.714844 37.558594 34.773438 39.0625 35.867188 C 39.0625 35.867188 39.121094 35.925781 39.121094 35.925781 L 56.878906 47.496094 C 56.996094 47.554688 57.113281 47.613281 57.226562 47.667969 L 57.75 48.015625 C 58.328125 48.417969 58.5 49.28125 58.152344 49.914062 C 57.980469 50.203125 57.691406 50.375 57.402344 50.492188 C 57.167969 50.546875 56.996094 50.492188 56.765625 50.433594 L 45.425781 42.71875 C 45.367188 42.71875 45.367188 42.660156 45.308594 42.660156 C 45.253906 42.660156 45.253906 42.601562 45.195312 42.601562 C 45.136719 42.601562 45.078125 42.546875 45.019531 42.546875 C 44.90625 42.488281 44.730469 42.488281 44.617188 42.546875 C 44.558594 42.546875 44.5 42.546875 44.441406 42.601562 C 44.441406 42.601562 44.382812 42.601562 44.382812 42.601562 C 44.328125 42.601562 44.328125 42.660156 44.269531 42.660156 C 44.269531 42.660156 44.210938 42.660156 44.210938 42.71875 C 44.152344 42.71875 44.152344 42.777344 44.152344 42.777344 C 44.09375 42.777344 44.09375 42.832031 44.039062 42.832031 C 44.039062 42.832031 43.980469 42.890625 43.980469 42.890625 C 43.921875 42.949219 43.921875 42.949219 43.863281 43.003906 C 43.863281 43.003906 43.804688 43.0625 43.804688 43.0625 C 43.804688 43.121094 43.746094 43.121094 43.746094 43.179688 C 43.746094 43.234375 43.746094 43.234375 43.691406 43.292969 C 43.691406 43.351562 43.632812 43.351562 43.632812 43.410156 C 43.632812 43.464844 43.632812 43.464844 43.632812 43.523438 C 43.632812 43.582031 43.632812 43.582031 43.632812 43.640625 C 43.632812 43.695312 43.632812 43.695312 43.632812 43.753906 C 43.632812 43.8125 43.632812 43.8125 43.632812 43.871094 C 43.632812 43.925781 43.632812 43.925781 43.632812 43.984375 C 43.632812 44.042969 43.632812 44.042969 43.691406 44.101562 C 43.691406 44.15625 43.746094 44.15625 43.746094 44.15625 C 43.746094 44.214844 43.804688 44.214844 43.804688 44.273438 C 43.804688 44.273438 43.863281 44.328125 43.863281 44.328125 C 43.863281 44.386719 43.921875 44.386719 43.921875 44.445312 C 43.921875 44.445312 43.980469 44.503906 43.980469 44.503906 C 44.039062 44.558594 44.039062 44.558594 44.09375 44.617188 L 55.144531 52.273438 C 55.320312 52.390625 55.492188 52.503906 55.664062 52.5625 L 57.804688 54.003906 C 58.328125 54.40625 58.5 55.269531 58.09375 55.902344 Z M 58.09375 55.902344"/></g><path d="M 61.796875 39.148438 C 61.796875 39.300781 61.769531 39.449219 61.710938 39.589844 C 61.652344 39.730469 61.566406 39.855469 61.460938 39.960938 C 61.351562 40.070312 61.226562 40.152344 61.082031 40.210938 C 60.941406 40.269531 60.792969 40.300781 60.640625 40.300781 C 60.488281 40.300781 60.339844 40.269531 60.199219 40.210938 C 60.054688 40.152344 59.929688 40.070312 59.824219 39.960938 C 59.714844 39.855469 59.628906 39.730469 59.570312 39.589844 C 59.511719 39.449219 59.484375 39.300781 59.484375 39.148438 C 59.484375 38.996094 59.511719 38.847656 59.570312 38.707031 C 59.628906 38.566406 59.714844 38.441406 59.824219 38.335938 C 59.929688 38.226562 60.054688 38.144531 60.199219 38.085938 C 60.339844 38.027344 60.488281 37.996094 60.640625 37.996094 C 60.792969 37.996094 60.941406 38.027344 61.082031 38.085938 C 61.226562 38.144531 61.351562 38.226562 61.460938 38.335938 C 61.566406 38.441406 61.652344 38.566406 61.710938 38.707031 C 61.769531 38.847656 61.796875 38.996094 61.796875 39.148438 Z M 61.796875 39.148438"/></svg>