<svg xmlns="http://www.w3.org/2000/svg" width="75" viewBox="0 0 75 75" height="75" version="1.0"><defs><clipPath id="a"><path d="M 0 20 L 75 20 L 75 71.933594 L 0 71.933594 Z M 0 20"/></clipPath><clipPath id="b"><path d="M 4 2.933594 L 66 2.933594 L 66 60 L 4 60 Z M 4 2.933594"/></clipPath></defs><path d="M 36.972656 57.265625 C 36.328125 57.207031 35.742188 57.675781 35.742188 58.320312 C 35.683594 58.960938 36.152344 59.546875 36.796875 59.546875 C 36.796875 59.546875 37.03125 59.546875 37.441406 59.605469 C 37.441406 59.605469 37.441406 59.605469 37.5 59.605469 C 38.144531 59.605469 38.671875 59.078125 38.671875 58.492188 C 38.671875 57.851562 38.203125 57.324219 37.558594 57.265625 C 37.207031 57.324219 37.03125 57.265625 36.972656 57.265625 Z M 36.972656 57.265625"/><path d="M 54.882812 53.585938 C 54.535156 53.761719 54.183594 53.9375 53.832031 54.113281 C 53.246094 54.40625 53.011719 55.105469 53.246094 55.691406 C 53.421875 56.097656 53.890625 56.332031 54.300781 56.332031 C 54.476562 56.332031 54.652344 56.273438 54.769531 56.214844 C 55.175781 56.039062 55.527344 55.863281 55.9375 55.632812 C 56.523438 55.339844 56.757812 54.636719 56.40625 54.054688 C 56.054688 53.46875 55.46875 53.234375 54.882812 53.585938 Z M 54.882812 53.585938"/><path d="M 49.382812 55.75 C 48.972656 55.863281 48.621094 55.980469 48.210938 56.039062 C 47.566406 56.214844 47.214844 56.859375 47.390625 57.441406 C 47.507812 57.96875 47.976562 58.320312 48.503906 58.320312 C 48.621094 58.320312 48.679688 58.320312 48.796875 58.261719 C 49.207031 58.144531 49.617188 58.027344 50.027344 57.910156 C 50.671875 57.734375 51.019531 57.09375 50.789062 56.449219 C 50.613281 55.921875 49.96875 55.574219 49.382812 55.75 Z M 49.382812 55.75"/><path d="M 43.527344 56.976562 C 43.121094 57.035156 42.710938 57.09375 42.359375 57.09375 C 41.714844 57.148438 41.246094 57.734375 41.304688 58.378906 C 41.363281 58.960938 41.890625 59.429688 42.476562 59.429688 C 42.535156 59.429688 42.535156 59.429688 42.59375 59.429688 C 43.003906 59.371094 43.410156 59.3125 43.878906 59.3125 C 44.523438 59.253906 44.992188 58.667969 44.875 58.027344 C 44.757812 57.382812 44.171875 56.917969 43.527344 56.976562 Z M 43.527344 56.976562"/><path d="M 59.742188 50.257812 C 59.449219 50.488281 59.15625 50.78125 58.863281 51.015625 C 58.339844 51.425781 58.28125 52.125 58.6875 52.652344 C 58.921875 52.945312 59.273438 53.117188 59.625 53.117188 C 59.859375 53.117188 60.152344 53.0625 60.328125 52.886719 C 60.679688 52.59375 60.972656 52.359375 61.324219 52.066406 C 61.792969 51.660156 61.851562 50.898438 61.441406 50.429688 C 60.972656 49.90625 60.210938 49.847656 59.742188 50.257812 Z M 59.742188 50.257812"/><path d="M 64.425781 52.242188 C 64.542969 52.242188 64.601562 52.300781 64.71875 52.300781 C 65.246094 52.300781 65.714844 51.949219 65.832031 51.425781 L 67.292969 45.992188 C 67.410156 45.582031 67.292969 45.113281 66.941406 44.824219 C 66.648438 44.53125 66.183594 44.414062 65.773438 44.53125 L 60.152344 46.285156 C 59.507812 46.457031 59.214844 47.101562 59.390625 47.742188 C 59.566406 48.386719 60.269531 48.679688 60.855469 48.503906 L 62.726562 47.917969 C 62.785156 48.152344 62.960938 48.328125 63.136719 48.445312 C 63.371094 48.621094 63.605469 48.679688 63.839844 48.679688 C 63.957031 48.679688 64.015625 48.679688 64.132812 48.621094 L 63.546875 50.722656 C 63.429688 51.425781 63.839844 52.066406 64.425781 52.242188 Z M 64.425781 52.242188"/><g clip-path="url(#a)"><path d="M 71.449219 20.519531 L 63.78125 20.519531 C 63.839844 20.925781 63.839844 21.277344 63.839844 21.6875 C 63.839844 22.09375 63.78125 22.445312 63.78125 22.855469 L 71.449219 22.855469 C 72.09375 22.855469 72.621094 23.378906 72.621094 24.023438 L 72.621094 63.753906 C 72.621094 64.394531 72.09375 64.921875 71.449219 64.921875 L 3.550781 64.921875 C 2.90625 64.921875 2.378906 64.394531 2.378906 63.753906 L 2.378906 24.023438 C 2.378906 23.378906 2.90625 22.855469 3.550781 22.855469 L 25.5 22.855469 L 27.257812 20.519531 L 3.550781 20.519531 C 1.617188 20.519531 0.0390625 22.09375 0.0390625 24.023438 L 0.0390625 63.753906 C 0.0390625 65.679688 1.617188 67.257812 3.550781 67.257812 L 31.648438 67.257812 L 31.648438 69.59375 L 27.550781 69.59375 C 26.90625 69.59375 26.378906 70.121094 26.378906 70.761719 C 26.378906 71.40625 26.90625 71.933594 27.550781 71.933594 L 47.449219 71.933594 C 48.09375 71.933594 48.621094 71.40625 48.621094 70.761719 C 48.621094 70.121094 48.09375 69.59375 47.449219 69.59375 L 43.351562 69.59375 L 43.351562 67.257812 L 71.449219 67.257812 C 73.382812 67.257812 74.960938 65.679688 74.960938 63.753906 L 74.960938 24.023438 C 74.960938 22.09375 73.382812 20.519531 71.449219 20.519531 Z M 41.011719 67.257812 L 41.011719 69.59375 L 33.988281 69.59375 L 33.988281 67.257812 Z M 41.011719 67.257812"/></g><g clip-path="url(#b)"><path d="M 21.460938 29.515625 C 21.050781 29.515625 20.699219 29.632812 20.289062 29.808594 L 8.527344 36.351562 C 7.414062 36.992188 7.003906 38.394531 7.648438 39.507812 L 7.824219 39.738281 L 5.832031 40.90625 C 4.78125 41.492188 4.429688 42.835938 5.011719 43.886719 L 10.164062 52.769531 C 10.574219 53.46875 11.335938 53.878906 12.039062 53.878906 C 12.390625 53.878906 12.796875 53.761719 13.148438 53.585938 L 15.140625 52.476562 C 15.609375 53.234375 16.371094 53.644531 17.1875 53.644531 C 17.597656 53.644531 17.949219 53.527344 18.359375 53.351562 L 20.117188 52.417969 L 28.132812 58.726562 C 28.425781 58.960938 28.835938 59.078125 29.1875 59.078125 C 29.714844 59.078125 30.183594 58.84375 30.535156 58.378906 L 33.050781 55.222656 C 33.636719 54.460938 33.460938 53.351562 32.757812 52.710938 L 27.257812 48.386719 L 30.183594 46.75 C 31.0625 46.285156 31.472656 45.347656 31.355469 44.414062 L 62.960938 40.265625 C 63.019531 40.265625 63.019531 40.265625 63.078125 40.265625 C 63.898438 40.089844 64.542969 39.621094 64.835938 38.921875 C 65.128906 38.21875 65.128906 37.402344 64.71875 36.703125 L 59.15625 26.652344 C 60.621094 25.484375 61.558594 23.671875 61.558594 21.6875 C 61.558594 18.121094 58.6875 15.257812 55.117188 15.257812 C 54.417969 15.257812 53.714844 15.375 53.070312 15.609375 L 46.75 4.277344 C 46.339844 3.515625 45.695312 3.046875 44.933594 2.992188 C 44.171875 2.933594 43.410156 3.28125 42.886719 3.984375 L 22.984375 30.042969 C 22.515625 29.691406 21.988281 29.515625 21.460938 29.515625 Z M 41.421875 9.769531 L 57.8125 38.628906 L 30.300781 42.25 L 24.328125 32.085938 Z M 12.15625 51.425781 L 7.121094 42.835938 L 8.992188 41.785156 L 14.027344 50.429688 Z M 30.828125 54.230469 L 29.070312 56.449219 L 22.339844 51.074219 L 25.03125 49.613281 Z M 17.246094 51.25 C 17.1875 51.25 17.1875 51.191406 17.246094 51.25 L 12.449219 43.070312 L 15.316406 41.492188 C 15.902344 41.199219 16.078125 40.5 15.785156 39.914062 C 15.492188 39.332031 14.789062 39.15625 14.203125 39.449219 L 11.277344 41.023438 L 9.695312 38.335938 L 21.460938 31.851562 C 21.460938 31.851562 21.519531 31.851562 21.519531 31.851562 L 29.011719 44.707031 Z M 55.058594 17.597656 C 57.34375 17.597656 59.15625 19.40625 59.15625 21.6875 C 59.15625 22.796875 58.6875 23.847656 57.988281 24.550781 L 54.183594 17.714844 C 54.476562 17.65625 54.769531 17.597656 55.058594 17.597656 Z M 44.699219 5.386719 L 62.609375 37.8125 C 62.667969 37.871094 62.667969 37.929688 62.667969 37.929688 C 62.667969 37.929688 62.609375 37.929688 62.550781 37.988281 L 60.269531 38.277344 L 42.945312 7.722656 Z M 44.699219 5.386719"/></g><path d="M 58.28125 13.449219 C 58.398438 13.449219 58.457031 13.507812 58.574219 13.507812 C 59.097656 13.507812 59.566406 13.15625 59.683594 12.628906 L 60.855469 7.957031 C 61.03125 7.3125 60.621094 6.671875 59.976562 6.554688 C 59.332031 6.378906 58.6875 6.789062 58.574219 7.429688 L 57.402344 12.105469 C 57.285156 12.6875 57.636719 13.332031 58.28125 13.449219 Z M 58.28125 13.449219"/><path d="M 69.109375 29.867188 C 69.519531 29.867188 69.929688 29.632812 70.160156 29.222656 C 70.453125 28.640625 70.21875 27.9375 69.636719 27.644531 L 64.953125 25.308594 C 64.367188 25.015625 63.664062 25.25 63.371094 25.835938 C 63.078125 26.417969 63.3125 27.121094 63.898438 27.410156 L 68.582031 29.75 C 68.757812 29.808594 68.933594 29.867188 69.109375 29.867188 Z M 69.109375 29.867188"/><path d="M 63.839844 18.179688 C 64.074219 18.179688 64.308594 18.121094 64.542969 17.945312 L 69.226562 14.441406 C 69.753906 14.03125 69.871094 13.332031 69.460938 12.804688 C 69.050781 12.28125 68.347656 12.164062 67.820312 12.570312 L 63.136719 16.078125 C 62.609375 16.488281 62.492188 17.1875 62.902344 17.714844 C 63.136719 18.003906 63.488281 18.179688 63.839844 18.179688 Z M 63.839844 18.179688"/></svg>