<svg xmlns="http://www.w3.org/2000/svg" width="75" viewBox="0 0 75 75" height="75" version="1.0"><path d="M 27.5 20 C 31.636719 20 35 16.636719 35 12.5 C 35 8.363281 31.636719 5 27.5 5 C 23.363281 5 20 8.363281 20 12.5 C 20 16.636719 23.363281 20 27.5 20 Z M 27.5 7.5 C 30.257812 7.5 32.5 9.742188 32.5 12.5 C 32.5 15.257812 30.257812 17.5 27.5 17.5 C 24.742188 17.5 22.5 15.257812 22.5 12.5 C 22.5 9.742188 24.742188 7.5 27.5 7.5 Z M 27.5 7.5"/><path d="M 73.75 0 L 1.25 0 C 0.558594 0 0 0.558594 0 1.25 L 0 46.25 C 0 46.941406 0.558594 47.5 1.25 47.5 L 11.25 47.5 L 11.25 51.363281 C 7.707031 51.960938 5 55.042969 5 58.75 C 5 61.359375 6.339844 63.65625 8.363281 65 C 6.339844 66.34375 5 68.640625 5 71.25 L 5 75 L 7.5 75 L 7.5 71.25 C 7.5 68.492188 9.742188 66.25 12.5 66.25 C 15.257812 66.25 17.5 68.492188 17.5 71.25 L 17.5 75 L 20 75 L 20 71.25 C 20 68.492188 22.242188 66.25 25 66.25 C 27.757812 66.25 30 68.492188 30 71.25 L 30 75 L 32.5 75 L 32.5 71.25 C 32.5 68.492188 34.742188 66.25 37.5 66.25 C 40.257812 66.25 42.5 68.492188 42.5 71.25 L 42.5 75 L 45 75 L 45 71.25 C 45 68.492188 47.242188 66.25 50 66.25 C 52.757812 66.25 55 68.492188 55 71.25 L 55 75 L 57.5 75 L 57.5 71.25 C 57.5 68.492188 59.742188 66.25 62.5 66.25 C 65.257812 66.25 67.5 68.492188 67.5 71.25 L 67.5 75 L 70 75 L 70 71.25 C 70 68.640625 68.660156 66.34375 66.636719 65 C 68.664062 63.65625 70 61.359375 70 58.75 C 70 55.042969 67.292969 51.960938 63.75 51.363281 L 63.75 47.5 L 73.75 47.5 C 74.441406 47.5 75 46.941406 75 46.25 L 75 1.25 C 75 0.558594 74.441406 0 73.75 0 Z M 20.882812 29.117188 L 11.09375 19.324219 L 7.863281 9.636719 L 10.472656 8.984375 L 13.828125 17.941406 C 13.90625 18.144531 14.035156 18.324219 14.199219 18.460938 L 21.605469 24.632812 L 26.523438 30.78125 C 26.761719 31.078125 27.121094 31.25 27.5 31.25 C 27.878906 31.25 28.238281 31.078125 28.476562 30.78125 L 33.28125 24.773438 L 41.742188 21.148438 C 41.859375 21.097656 41.96875 21.03125 42.0625 20.949219 L 49.933594 14.203125 L 51.984375 16.25 L 44.257812 23.972656 L 34.441406 28.882812 C 34.015625 29.09375 33.75 29.527344 33.75 30 L 33.75 40 L 21.25 40 L 21.25 30 C 21.25 29.667969 21.117188 29.351562 20.882812 29.117188 Z M 25.101562 25 L 29.898438 25 L 27.5 28 Z M 61.25 42.5 L 61.25 51.363281 C 59.167969 51.714844 57.375 52.921875 56.25 54.613281 C 54.90625 52.585938 52.609375 51.25 50 51.25 C 47.390625 51.25 45.09375 52.589844 43.75 54.613281 C 42.40625 52.585938 40.109375 51.25 37.5 51.25 C 34.890625 51.25 32.59375 52.589844 31.25 54.613281 C 29.90625 52.585938 27.609375 51.25 25 51.25 C 22.390625 51.25 20.09375 52.589844 18.75 54.613281 C 17.625 52.921875 15.832031 51.714844 13.75 51.363281 L 13.75 42.5 Z M 50 63.75 C 47.242188 63.75 45 61.507812 45 58.75 C 45 55.992188 47.242188 53.75 50 53.75 C 52.757812 53.75 55 55.992188 55 58.75 C 55 61.507812 52.757812 63.75 50 63.75 Z M 37.5 63.75 C 34.742188 63.75 32.5 61.507812 32.5 58.75 C 32.5 55.992188 34.742188 53.75 37.5 53.75 C 40.257812 53.75 42.5 55.992188 42.5 58.75 C 42.5 61.507812 40.257812 63.75 37.5 63.75 Z M 25 63.75 C 22.242188 63.75 20 61.507812 20 58.75 C 20 55.992188 22.242188 53.75 25 53.75 C 27.757812 53.75 30 55.992188 30 58.75 C 30 61.507812 27.757812 63.75 25 63.75 Z M 7.5 58.75 C 7.5 55.992188 9.742188 53.75 12.5 53.75 C 15.257812 53.75 17.5 55.992188 17.5 58.75 C 17.5 61.507812 15.257812 63.75 12.5 63.75 C 9.742188 63.75 7.5 61.507812 7.5 58.75 Z M 18.75 67.113281 C 18.195312 66.273438 17.476562 65.554688 16.636719 65 C 17.476562 64.445312 18.195312 63.726562 18.75 62.886719 C 19.304688 63.726562 20.023438 64.445312 20.863281 65 C 20.023438 65.554688 19.304688 66.273438 18.75 67.113281 Z M 31.25 67.113281 C 30.695312 66.273438 29.976562 65.554688 29.136719 65 C 29.976562 64.445312 30.695312 63.726562 31.25 62.886719 C 31.804688 63.726562 32.523438 64.445312 33.363281 65 C 32.523438 65.554688 31.804688 66.273438 31.25 67.113281 Z M 43.75 67.113281 C 43.195312 66.273438 42.476562 65.554688 41.636719 65 C 42.476562 64.445312 43.195312 63.726562 43.75 62.886719 C 44.304688 63.726562 45.023438 64.445312 45.863281 65 C 45.023438 65.554688 44.304688 66.273438 43.75 67.113281 Z M 56.25 67.113281 C 55.695312 66.273438 54.976562 65.554688 54.136719 65 C 54.976562 64.445312 55.695312 63.726562 56.25 62.886719 C 56.804688 63.726562 57.523438 64.445312 58.363281 65 C 57.523438 65.554688 56.804688 66.273438 56.25 67.113281 Z M 67.5 58.75 C 67.5 61.507812 65.257812 63.75 62.5 63.75 C 59.742188 63.75 57.5 61.507812 57.5 58.75 C 57.5 55.992188 59.742188 53.75 62.5 53.75 C 65.257812 53.75 67.5 55.992188 67.5 58.75 Z M 72.5 45 L 63.75 45 L 63.75 41.25 C 63.75 40.558594 63.191406 40 62.5 40 L 36.25 40 L 36.25 30.773438 L 45.558594 26.117188 C 45.679688 26.058594 45.789062 25.980469 45.882812 25.882812 L 54.632812 17.132812 C 55.121094 16.644531 55.121094 15.855469 54.632812 15.363281 L 50.882812 11.613281 C 50.421875 11.152344 49.679688 11.125 49.1875 11.550781 L 40.582031 18.925781 L 32.242188 22.5 L 22.953125 22.5 L 16.054688 16.75 L 12.421875 7.0625 C 12.195312 6.464844 11.5625 6.132812 10.945312 6.289062 L 5.945312 7.539062 C 5.609375 7.621094 5.320312 7.84375 5.152344 8.148438 C 4.984375 8.453125 4.953125 8.816406 5.0625 9.144531 L 8.8125 20.394531 C 8.875 20.578125 8.980469 20.746094 9.113281 20.886719 L 18.75 30.515625 L 18.75 40 L 12.5 40 C 11.808594 40 11.25 40.558594 11.25 41.25 L 11.25 45 L 2.5 45 L 2.5 2.5 L 72.5 2.5 Z M 72.5 45"/><path d="M 40 6.25 L 68.75 6.25 L 68.75 8.75 L 40 8.75 Z M 40 6.25"/><path d="M 56.25 11.25 L 68.75 11.25 L 68.75 13.75 L 56.25 13.75 Z M 56.25 11.25"/><path d="M 57.5 16.25 L 68.75 16.25 L 68.75 18.75 L 57.5 18.75 Z M 57.5 16.25"/><path d="M 52.5 21.25 L 68.75 21.25 L 68.75 23.75 L 52.5 23.75 Z M 52.5 21.25"/><path d="M 47.5 26.25 L 68.75 26.25 L 68.75 28.75 L 47.5 28.75 Z M 47.5 26.25"/><path d="M 40 31.25 L 68.75 31.25 L 68.75 33.75 L 40 33.75 Z M 40 31.25"/><path d="M 56.25 45 L 58.75 45 L 58.75 47.5 L 56.25 47.5 Z M 56.25 45"/><path d="M 51.25 45 L 53.75 45 L 53.75 47.5 L 51.25 47.5 Z M 51.25 45"/><path d="M 46.25 45 L 48.75 45 L 48.75 47.5 L 46.25 47.5 Z M 46.25 45"/></svg>