<svg xmlns="http://www.w3.org/2000/svg" width="75" viewBox="0 0 75 75" height="75" version="1.0"><path fill="#040606" d="M 50 30 L 50 47.5 C 50 48.875 51.121094 50 52.5 50 L 53.535156 50 C 55.566406 50 57.304688 51.484375 57.480469 53.378906 C 57.488281 53.484375 57.5 53.59375 57.5 53.699219 L 57.5 53.75 C 57.5 54.6875 57.164062 55.570312 56.523438 56.273438 C 55.816406 57.050781 54.804688 57.5 53.75 57.5 L 21.25 57.5 C 20.195312 57.5 19.183594 57.050781 18.476562 56.273438 C 17.835938 55.570312 17.5 54.6875 17.5 53.75 L 17.5 53.699219 C 17.5 53.59375 17.507812 53.484375 17.519531 53.378906 C 17.695312 51.484375 19.433594 50 21.464844 50 L 22.5 50 C 23.875 50 25 48.875 25 47.5 L 25 30 Z M 52.5 20 L 53.75 20 C 55.820312 20 57.5 21.679688 57.5 23.75 L 57.5 48.824219 C 56.394531 47.996094 55.015625 47.5 53.535156 47.5 L 52.5 47.5 Z M 17.5 23.75 C 17.5 21.679688 19.179688 20 21.25 20 L 22.5 20 L 22.5 47.5 L 21.464844 47.5 C 19.984375 47.5 18.601562 47.996094 17.5 48.824219 Z M 22.5 17.5 L 21.25 17.5 C 17.804688 17.5 15 20.300781 15 23.75 L 15 53.75 C 15.003906 55.296875 15.582031 56.804688 16.621094 57.953125 C 17.808594 59.253906 19.492188 60 21.25 60 L 53.75 60 C 55.507812 60 57.191406 59.253906 58.378906 57.953125 C 59.417969 56.804688 59.996094 55.296875 60 53.75 L 60 23.75 C 60 20.300781 57.195312 17.5 53.75 17.5 L 52.5 17.5 C 51.121094 17.5 50 18.621094 50 20 L 50 27.5 L 25 27.5 L 25 20 C 25 18.621094 23.875 17.5 22.5 17.5"/><path fill="#040606" d="M 28.75 43.75 C 29.070312 43.75 29.390625 43.628906 29.632812 43.382812 L 33.75 39.265625 L 36.980469 42.5 C 37.929688 43.445312 39.570312 43.445312 40.515625 42.5 L 45 38.015625 L 45 38.75 C 45 39.4375 45.5625 40 46.25 40 C 46.9375 40 47.5 39.4375 47.5 38.75 L 47.5 35 C 47.5 34.3125 46.9375 33.75 46.25 33.75 L 42.5 33.75 C 41.8125 33.75 41.25 34.3125 41.25 35 C 41.25 35.6875 41.8125 36.25 42.5 36.25 L 43.230469 36.25 L 38.75 40.730469 L 35.515625 37.5 C 34.546875 36.523438 32.953125 36.523438 31.980469 37.5 L 27.867188 41.617188 C 27.378906 42.105469 27.378906 42.894531 27.867188 43.382812 C 28.109375 43.628906 28.425781 43.75 28.75 43.75"/><path fill="#040606" d="M 28.75 48.75 L 30 48.75 C 30.6875 48.75 31.25 48.1875 31.25 47.5 C 31.25 46.8125 30.6875 46.25 30 46.25 L 28.75 46.25 C 28.0625 46.25 27.5 46.8125 27.5 47.5 C 27.5 48.1875 28.0625 48.75 28.75 48.75"/><path fill="#040606" d="M 46.25 46.25 L 35 46.25 C 34.3125 46.25 33.75 46.8125 33.75 47.5 C 33.75 48.1875 34.3125 48.75 35 48.75 L 46.25 48.75 C 46.9375 48.75 47.5 48.1875 47.5 47.5 C 47.5 46.8125 46.9375 46.25 46.25 46.25"/><path fill="#040606" d="M 28.75 53.75 L 40 53.75 C 40.6875 53.75 41.25 53.1875 41.25 52.5 C 41.25 51.8125 40.6875 51.25 40 51.25 L 28.75 51.25 C 28.0625 51.25 27.5 51.8125 27.5 52.5 C 27.5 53.1875 28.0625 53.75 28.75 53.75"/><path fill="#040606" d="M 37.5 75 C 45.457031 75 53.0625 72.539062 59.480469 67.878906 C 60.042969 67.476562 60.164062 66.695312 59.761719 66.136719 C 59.355469 65.582031 58.578125 65.453125 58.015625 65.859375 C 52.019531 70.203125 44.925781 72.5 37.5 72.5 C 18.199219 72.5 2.5 56.800781 2.5 37.5 C 2.5 29.246094 5.371094 21.382812 10.613281 15.097656 L 10.613281 17.167969 C 10.613281 17.859375 11.175781 18.417969 11.863281 18.417969 C 12.558594 18.417969 13.113281 17.859375 13.113281 17.167969 L 13.113281 11.863281 C 13.113281 11.175781 12.558594 10.613281 11.863281 10.613281 L 6.5625 10.613281 C 5.875 10.613281 5.3125 11.175781 5.3125 11.863281 C 5.3125 12.558594 5.875 13.113281 6.5625 13.113281 L 9.015625 13.113281 C 3.1875 19.90625 0 28.492188 0 37.5 C 0 58.179688 16.820312 75 37.5 75"/><path fill="#040606" d="M 37.5 0 C 29.945312 0 22.664062 2.234375 16.445312 6.464844 C 15.875 6.855469 15.722656 7.632812 16.113281 8.203125 C 16.5 8.773438 17.28125 8.925781 17.851562 8.535156 C 23.652344 4.585938 30.449219 2.5 37.5 2.5 C 56.800781 2.5 72.5 18.199219 72.5 37.5 C 72.5 45.75 69.628906 53.617188 64.382812 59.902344 L 64.382812 57.832031 C 64.382812 57.136719 63.824219 56.582031 63.132812 56.582031 C 62.441406 56.582031 61.882812 57.136719 61.882812 57.832031 L 61.882812 63.132812 C 61.882812 63.824219 62.441406 64.382812 63.132812 64.382812 L 68.4375 64.382812 C 69.125 64.382812 69.6875 63.824219 69.6875 63.132812 C 69.6875 62.441406 69.125 61.882812 68.4375 61.882812 L 65.984375 61.882812 C 71.8125 55.09375 75 46.507812 75 37.5 C 75 16.820312 58.179688 0 37.5 0"/></svg>