<svg xmlns="http://www.w3.org/2000/svg" width="75" viewBox="0 0 75 75" height="75" version="1.0"><path fill="#040606" d="M 72.5 70 C 72.5 71.375 71.375 72.5 70 72.5 L 5 72.5 C 3.625 72.5 2.5 71.375 2.5 70 L 2.5 5 C 2.5 3.621094 3.625 2.5 5 2.5 L 70 2.5 C 71.375 2.5 72.5 3.621094 72.5 5 Z M 70 0 L 5 0 C 2.242188 0 0 2.242188 0 5 L 0 70 C 0 72.757812 2.242188 75 5 75 L 70 75 C 72.757812 75 75 72.757812 75 70 L 75 5 C 75 2.242188 72.757812 0 70 0"/><path fill="#040606" d="M 13.75 22.5 C 10.304688 22.5 7.5 19.695312 7.5 16.25 C 7.5 12.800781 10.304688 10 13.75 10 C 17.195312 10 20 12.800781 20 16.25 C 20 19.695312 17.195312 22.5 13.75 22.5 Z M 13.75 7.5 C 8.925781 7.5 5 11.425781 5 16.25 C 5 21.074219 8.925781 25 13.75 25 C 18.574219 25 22.5 21.074219 22.5 16.25 C 22.5 11.425781 18.574219 7.5 13.75 7.5"/><path fill="#040606" d="M 66.25 12.5 L 28.75 12.5 C 28.0625 12.5 27.5 11.9375 27.5 11.25 C 27.5 10.5625 28.0625 10 28.75 10 L 66.25 10 C 66.9375 10 67.5 10.5625 67.5 11.25 C 67.5 11.9375 66.9375 12.5 66.25 12.5 Z M 66.25 7.5 L 28.75 7.5 C 26.679688 7.5 25 9.179688 25 11.25 C 25 13.320312 26.679688 15 28.75 15 L 66.25 15 C 68.320312 15 70 13.320312 70 11.25 C 70 9.179688 68.320312 7.5 66.25 7.5"/><path fill="#040606" d="M 28.75 20 L 46.25 20 C 46.9375 20 47.5 20.5625 47.5 21.25 C 47.5 21.9375 46.9375 22.5 46.25 22.5 L 28.75 22.5 C 28.0625 22.5 27.5 21.9375 27.5 21.25 C 27.5 20.5625 28.0625 20 28.75 20 Z M 28.75 25 L 46.25 25 C 48.320312 25 50 23.320312 50 21.25 C 50 19.179688 48.320312 17.5 46.25 17.5 L 28.75 17.5 C 26.679688 17.5 25 19.179688 25 21.25 C 25 23.320312 26.679688 25 28.75 25"/><path fill="#040606" d="M 13.75 43.75 C 10.304688 43.75 7.5 40.945312 7.5 37.5 C 7.5 34.050781 10.304688 31.25 13.75 31.25 C 17.195312 31.25 20 34.050781 20 37.5 C 20 40.945312 17.195312 43.75 13.75 43.75 Z M 13.75 28.75 C 8.925781 28.75 5 32.675781 5 37.5 C 5 42.324219 8.925781 46.25 13.75 46.25 C 18.574219 46.25 22.5 42.324219 22.5 37.5 C 22.5 32.675781 18.574219 28.75 13.75 28.75"/><path fill="#040606" d="M 66.25 33.75 L 28.75 33.75 C 28.0625 33.75 27.5 33.1875 27.5 32.5 C 27.5 31.8125 28.0625 31.25 28.75 31.25 L 66.25 31.25 C 66.9375 31.25 67.5 31.8125 67.5 32.5 C 67.5 33.1875 66.9375 33.75 66.25 33.75 Z M 66.25 28.75 L 28.75 28.75 C 26.679688 28.75 25 30.429688 25 32.5 C 25 34.570312 26.679688 36.25 28.75 36.25 L 66.25 36.25 C 68.320312 36.25 70 34.570312 70 32.5 C 70 30.429688 68.320312 28.75 66.25 28.75"/><path fill="#040606" d="M 28.75 41.25 L 46.25 41.25 C 46.9375 41.25 47.5 41.8125 47.5 42.5 C 47.5 43.1875 46.9375 43.75 46.25 43.75 L 28.75 43.75 C 28.0625 43.75 27.5 43.1875 27.5 42.5 C 27.5 41.8125 28.0625 41.25 28.75 41.25 Z M 28.75 46.25 L 46.25 46.25 C 48.320312 46.25 50 44.570312 50 42.5 C 50 40.429688 48.320312 38.75 46.25 38.75 L 28.75 38.75 C 26.679688 38.75 25 40.429688 25 42.5 C 25 44.570312 26.679688 46.25 28.75 46.25"/><path fill="#040606" d="M 13.75 65 C 10.304688 65 7.5 62.195312 7.5 58.75 C 7.5 55.300781 10.304688 52.5 13.75 52.5 C 17.195312 52.5 20 55.300781 20 58.75 C 20 62.195312 17.195312 65 13.75 65 Z M 13.75 50 C 8.925781 50 5 53.925781 5 58.75 C 5 63.574219 8.925781 67.5 13.75 67.5 C 18.574219 67.5 22.5 63.574219 22.5 58.75 C 22.5 53.925781 18.574219 50 13.75 50"/><path fill="#040606" d="M 66.25 55 L 28.75 55 C 28.0625 55 27.5 54.4375 27.5 53.75 C 27.5 53.0625 28.0625 52.5 28.75 52.5 L 66.25 52.5 C 66.9375 52.5 67.5 53.0625 67.5 53.75 C 67.5 54.4375 66.9375 55 66.25 55 Z M 66.25 50 L 28.75 50 C 26.679688 50 25 51.679688 25 53.75 C 25 55.820312 26.679688 57.5 28.75 57.5 L 66.25 57.5 C 68.320312 57.5 70 55.820312 70 53.75 C 70 51.679688 68.320312 50 66.25 50"/><path fill="#040606" d="M 46.25 65 L 28.75 65 C 28.0625 65 27.5 64.4375 27.5 63.75 C 27.5 63.0625 28.0625 62.5 28.75 62.5 L 46.25 62.5 C 46.9375 62.5 47.5 63.0625 47.5 63.75 C 47.5 64.4375 46.9375 65 46.25 65 Z M 46.25 60 L 28.75 60 C 26.679688 60 25 61.679688 25 63.75 C 25 65.820312 26.679688 67.5 28.75 67.5 L 46.25 67.5 C 48.320312 67.5 50 65.820312 50 63.75 C 50 61.679688 48.320312 60 46.25 60"/><path fill="#040606" d="M 15.25 12.996094 L 12.363281 16.84375 L 12.132812 16.617188 C 11.644531 16.128906 10.855469 16.128906 10.367188 16.617188 C 9.878906 17.105469 9.878906 17.894531 10.367188 18.382812 L 11.617188 19.632812 C 11.851562 19.867188 12.167969 20 12.5 20 C 12.53125 20 12.558594 20 12.585938 19.996094 C 12.949219 19.96875 13.28125 19.789062 13.5 19.5 L 17.25 14.5 C 17.664062 13.945312 17.554688 13.164062 16.996094 12.75 C 16.449219 12.332031 15.664062 12.449219 15.25 12.996094"/><path fill="#040606" d="M 15.25 34.246094 L 12.363281 38.09375 L 12.132812 37.867188 C 11.644531 37.378906 10.855469 37.378906 10.367188 37.867188 C 9.878906 38.355469 9.878906 39.144531 10.367188 39.632812 L 11.617188 40.882812 C 11.851562 41.117188 12.167969 41.25 12.5 41.25 C 12.53125 41.25 12.558594 41.25 12.585938 41.246094 C 12.949219 41.21875 13.28125 41.039062 13.5 40.746094 L 17.25 35.75 C 17.664062 35.195312 17.554688 34.414062 16.996094 34 C 16.449219 33.582031 15.664062 33.699219 15.25 34.246094"/></svg>