<svg xmlns="http://www.w3.org/2000/svg" width="75" viewBox="0 0 75 75" height="75" version="1.0"><defs><clipPath id="a"><path d="M 0 9.066406 L 75 9.066406 L 75 66.066406 L 0 66.066406 Z M 0 9.066406"/></clipPath></defs><path d="M 54.71875 39.367188 C 50.324219 39.367188 46.738281 35.769531 46.738281 31.363281 C 46.738281 26.960938 50.324219 23.363281 54.71875 23.363281 C 59.113281 23.363281 62.699219 26.960938 62.699219 31.363281 C 62.699219 35.769531 59.113281 39.367188 54.71875 39.367188 Z M 54.71875 25.160156 C 51.3125 25.160156 48.53125 27.949219 48.53125 31.363281 C 48.53125 34.78125 51.3125 37.566406 54.71875 37.566406 C 58.128906 37.566406 60.90625 34.78125 60.90625 31.363281 C 60.90625 27.949219 58.128906 25.160156 54.71875 25.160156 Z M 54.71875 25.160156"/><path d="M 69.335938 50.785156 L 63.328125 39.996094 C 63.957031 39.816406 64.585938 39.546875 65.03125 38.917969 C 65.570312 38.109375 65.570312 37.117188 65.480469 36.21875 C 65.480469 35.679688 65.390625 35.230469 65.480469 34.871094 C 65.570312 34.601562 65.929688 34.152344 66.199219 33.792969 C 66.738281 33.074219 67.453125 32.355469 67.453125 31.273438 C 67.453125 30.195312 66.828125 29.476562 66.199219 28.757812 C 65.929688 28.398438 65.570312 28.039062 65.480469 27.679688 C 65.390625 27.320312 65.390625 26.871094 65.480469 26.328125 C 65.570312 25.429688 65.570312 24.441406 65.03125 23.632812 C 64.40625 22.824219 63.507812 22.554688 62.613281 22.375 C 62.164062 22.285156 61.625 22.105469 61.355469 21.925781 C 61.085938 21.746094 60.816406 21.296875 60.546875 20.847656 C 60.101562 20.125 59.5625 19.226562 58.574219 18.957031 C 57.679688 18.6875 56.78125 19.046875 55.976562 19.316406 C 55.527344 19.496094 54.988281 19.675781 54.628906 19.675781 C 54.269531 19.675781 53.824219 19.496094 53.285156 19.316406 C 52.476562 18.957031 51.582031 18.597656 50.683594 18.957031 C 49.695312 19.226562 49.160156 20.125 48.710938 20.847656 C 48.441406 21.296875 48.171875 21.65625 47.902344 21.925781 C 47.632812 22.105469 47.097656 22.285156 46.648438 22.375 C 45.75 22.554688 44.855469 22.824219 44.226562 23.632812 C 43.6875 24.441406 43.6875 25.429688 43.777344 26.328125 C 43.777344 26.871094 43.867188 27.320312 43.777344 27.679688 C 43.6875 27.949219 43.328125 28.398438 43.058594 28.757812 C 42.523438 29.476562 41.804688 30.195312 41.804688 31.273438 C 41.804688 32.265625 42.433594 33.074219 43.058594 33.792969 C 43.328125 34.152344 43.6875 34.511719 43.777344 34.871094 C 43.867188 35.230469 43.867188 35.679688 43.777344 36.21875 C 43.6875 37.117188 43.6875 38.109375 44.226562 38.917969 C 44.765625 39.636719 45.570312 39.90625 46.378906 40.085938 L 40.460938 50.785156 C 40.28125 51.054688 40.28125 51.414062 40.460938 51.683594 C 40.640625 51.953125 40.90625 52.132812 41.265625 52.132812 L 45.125 51.863281 L 46.917969 55.28125 C 47.097656 55.550781 47.363281 55.730469 47.722656 55.730469 C 48.082031 55.730469 48.351562 55.550781 48.53125 55.28125 L 54.988281 43.863281 L 61.265625 55.191406 C 61.445312 55.460938 61.714844 55.640625 62.074219 55.640625 C 62.433594 55.640625 62.699219 55.460938 62.878906 55.191406 L 64.675781 51.773438 L 68.53125 52.042969 C 68.890625 52.042969 69.160156 51.863281 69.335938 51.59375 C 69.515625 51.414062 69.515625 51.054688 69.335938 50.785156 Z M 45.660156 36.308594 C 45.660156 35.679688 45.75 34.960938 45.570312 34.332031 C 45.390625 33.703125 44.945312 33.164062 44.496094 32.714844 C 44.136719 32.265625 43.6875 31.722656 43.6875 31.363281 C 43.6875 31.003906 44.136719 30.464844 44.496094 30.015625 C 44.945312 29.476562 45.390625 29.027344 45.570312 28.398438 C 45.75 27.769531 45.75 27.050781 45.660156 26.417969 C 45.660156 25.789062 45.570312 25.160156 45.75 24.890625 C 45.929688 24.621094 46.558594 24.441406 47.097656 24.351562 C 47.722656 24.171875 48.441406 23.992188 48.980469 23.632812 C 49.519531 23.273438 49.875 22.644531 50.234375 22.105469 C 50.59375 21.566406 50.863281 21.027344 51.222656 20.9375 C 51.3125 20.9375 51.3125 20.9375 51.402344 20.9375 C 51.757812 20.9375 52.207031 21.117188 52.65625 21.296875 C 53.285156 21.566406 53.910156 21.835938 54.628906 21.835938 C 55.347656 21.835938 55.976562 21.566406 56.601562 21.296875 C 57.140625 21.117188 57.679688 20.847656 58.039062 20.9375 C 58.394531 21.027344 58.664062 21.566406 59.023438 22.105469 C 59.382812 22.644531 59.742188 23.273438 60.28125 23.632812 C 60.816406 23.992188 61.535156 24.171875 62.164062 24.351562 C 62.789062 24.53125 63.328125 24.621094 63.507812 24.890625 C 63.6875 25.160156 63.6875 25.789062 63.597656 26.417969 C 63.597656 27.050781 63.507812 27.769531 63.6875 28.398438 C 63.867188 29.027344 64.316406 29.566406 64.765625 30.015625 C 65.121094 30.464844 65.570312 31.003906 65.570312 31.363281 C 65.570312 31.722656 65.121094 32.265625 64.765625 32.714844 C 64.316406 33.253906 63.867188 33.703125 63.6875 34.332031 C 63.507812 34.960938 63.507812 35.679688 63.597656 36.308594 C 63.597656 36.9375 63.6875 37.566406 63.507812 37.835938 C 63.328125 38.109375 62.699219 38.289062 62.164062 38.378906 C 61.535156 38.558594 60.816406 38.738281 60.28125 39.097656 C 59.742188 39.457031 59.382812 40.085938 59.023438 40.625 C 58.664062 41.164062 58.394531 41.703125 58.039062 41.792969 C 57.769531 41.882812 57.140625 41.613281 56.601562 41.433594 C 56.152344 41.253906 55.617188 41.074219 55.167969 40.984375 C 54.988281 40.984375 54.808594 40.894531 54.628906 40.894531 C 53.910156 40.894531 53.285156 41.164062 52.65625 41.433594 C 52.117188 41.613281 51.582031 41.882812 51.222656 41.792969 C 50.863281 41.703125 50.59375 41.164062 50.234375 40.625 C 49.875 40.085938 49.519531 39.457031 48.980469 39.097656 C 48.441406 38.738281 47.722656 38.558594 47.097656 38.378906 C 46.46875 38.199219 45.929688 38.109375 45.75 37.835938 C 45.570312 37.566406 45.660156 36.9375 45.660156 36.308594 Z M 47.902344 52.941406 L 46.558594 50.515625 C 46.378906 50.246094 46.019531 50.066406 45.75 50.066406 L 42.96875 50.15625 L 48.171875 40.714844 C 48.351562 40.894531 48.621094 41.253906 48.800781 41.613281 C 49.25 42.332031 49.785156 43.230469 50.773438 43.5 C 51.042969 43.59375 51.222656 43.59375 51.492188 43.59375 C 52.117188 43.59375 52.835938 43.320312 53.375 43.050781 Z M 64.226562 49.976562 C 63.867188 49.976562 63.507812 50.15625 63.417969 50.425781 L 62.074219 52.851562 L 56.871094 43.410156 C 57.410156 43.59375 58.039062 43.683594 58.664062 43.5 C 59.652344 43.230469 60.191406 42.332031 60.636719 41.613281 C 60.90625 41.164062 61.175781 40.804688 61.445312 40.535156 C 61.535156 40.445312 61.625 40.445312 61.714844 40.445312 L 67.09375 50.15625 Z M 64.226562 49.976562"/><g clip-path="url(#a)"><path d="M 70.863281 66.066406 L 4.136719 66.066406 C 1.984375 66.066406 0.28125 64.359375 0.28125 62.203125 L 0.28125 12.933594 C 0.28125 10.777344 1.984375 9.066406 4.136719 9.066406 L 70.863281 9.066406 C 73.015625 9.066406 74.71875 10.777344 74.71875 12.933594 L 74.71875 62.203125 C 74.71875 64.269531 72.925781 66.066406 70.863281 66.066406 Z M 4.136719 10.867188 C 2.972656 10.867188 2.074219 11.765625 2.074219 12.933594 L 2.074219 62.203125 C 2.074219 63.371094 2.972656 64.269531 4.136719 64.269531 L 70.863281 64.269531 C 72.027344 64.269531 72.925781 63.371094 72.925781 62.203125 L 72.925781 12.933594 C 72.925781 11.765625 72.027344 10.867188 70.863281 10.867188 Z M 4.136719 10.867188"/></g><path d="M 67.722656 62.292969 L 7.546875 62.292969 C 5.664062 62.292969 4.136719 60.765625 4.136719 58.875 L 4.136719 16.261719 C 4.136719 14.371094 5.664062 12.84375 7.546875 12.84375 L 67.722656 12.84375 C 69.605469 12.84375 71.132812 14.371094 71.132812 16.261719 L 71.132812 58.875 C 71.132812 60.765625 69.605469 62.292969 67.722656 62.292969 Z M 7.546875 13.742188 C 6.199219 13.742188 5.035156 14.910156 5.035156 16.261719 L 5.035156 58.875 C 5.035156 60.222656 6.199219 61.394531 7.546875 61.394531 L 67.722656 61.394531 C 69.070312 61.394531 70.234375 60.222656 70.234375 58.875 L 70.234375 16.261719 C 70.234375 14.910156 69.070312 13.742188 67.722656 13.742188 Z M 7.546875 13.742188"/><path d="M 39.742188 22.464844 L 10.683594 22.464844 C 10.148438 22.464844 9.789062 22.105469 9.789062 21.566406 C 9.789062 21.027344 10.148438 20.664062 10.683594 20.664062 L 39.652344 20.664062 C 40.191406 20.664062 40.550781 21.027344 40.550781 21.566406 C 40.550781 22.105469 40.191406 22.464844 39.742188 22.464844 Z M 39.742188 22.464844"/><path d="M 36.421875 44.941406 L 10.683594 44.941406 C 10.148438 44.941406 9.789062 44.582031 9.789062 44.042969 C 9.789062 43.5 10.148438 43.140625 10.683594 43.140625 L 36.421875 43.140625 C 36.960938 43.140625 37.320312 43.5 37.320312 44.042969 C 37.320312 44.582031 36.960938 44.941406 36.421875 44.941406 Z M 36.421875 44.941406"/><path d="M 36.421875 34.601562 L 10.683594 34.601562 C 10.148438 34.601562 9.789062 34.242188 9.789062 33.703125 C 9.789062 33.164062 10.148438 32.804688 10.683594 32.804688 L 36.421875 32.804688 C 36.960938 32.804688 37.320312 33.164062 37.320312 33.703125 C 37.320312 34.242188 36.960938 34.601562 36.421875 34.601562 Z M 36.421875 34.601562"/><path d="M 24.316406 51.773438 L 10.683594 51.773438 C 10.148438 51.773438 9.789062 51.414062 9.789062 50.875 C 9.789062 50.335938 10.148438 49.976562 10.683594 49.976562 L 24.316406 49.976562 C 24.855469 49.976562 25.214844 50.335938 25.214844 50.875 C 25.214844 51.414062 24.855469 51.773438 24.316406 51.773438 Z M 24.316406 51.773438"/></svg>