<svg xmlns="http://www.w3.org/2000/svg" width="75" viewBox="0 0 75 75" height="75" version="1.0"><path d="M 23.925781 23.925781 C 24.335938 24.21875 24.804688 24.335938 25.273438 24.335938 C 25.566406 24.335938 25.859375 24.277344 26.09375 24.160156 L 28.375 23.285156 C 30.1875 22.582031 31.066406 20.535156 30.421875 18.722656 L 28.140625 12.578125 C 27.613281 11.234375 26.324219 10.296875 24.863281 10.296875 C 24.453125 10.296875 23.984375 10.355469 23.578125 10.53125 L 21.121094 11.464844 C 20.476562 11.699219 20.007812 12.226562 19.773438 12.871094 C 19.421875 12.695312 19.070312 12.578125 18.664062 12.578125 C 18.371094 12.578125 18.078125 12.636719 17.84375 12.753906 L 7.3125 16.847656 C 6.316406 17.140625 0.234375 19.65625 0 28.667969 C 0 29.71875 0.644531 30.65625 1.636719 30.949219 C 1.871094 31.007812 2.105469 31.066406 2.339844 31.066406 C 3.101562 31.066406 3.859375 30.65625 4.328125 30.011719 C 5.089844 28.839844 7.371094 26.09375 10.003906 25.449219 L 11.933594 27.730469 C 12.402344 28.257812 13.046875 28.550781 13.691406 28.550781 C 13.980469 28.550781 14.273438 28.492188 14.507812 28.375 L 14.683594 28.316406 L 17.492188 35.863281 L 12.285156 35.863281 C 11.582031 35.863281 10.882812 36.214844 10.414062 36.738281 C 9.945312 37.324219 9.828125 38.027344 10.003906 38.730469 L 11.175781 43.410156 C 11.347656 43.992188 11.699219 44.519531 12.226562 44.8125 L 15.796875 72.894531 C 15.972656 74.0625 16.964844 74.941406 18.136719 74.941406 L 56.746094 74.941406 C 57.917969 74.941406 58.910156 74.0625 59.085938 72.894531 L 62.65625 44.8125 C 63.183594 44.519531 63.535156 43.992188 63.710938 43.410156 L 64.878906 38.730469 C 65.054688 38.027344 64.878906 37.265625 64.46875 36.738281 C 64 36.15625 63.359375 35.863281 62.597656 35.863281 L 61.484375 35.863281 L 62.539062 32.996094 C 62.773438 33.054688 63.066406 33.054688 63.300781 33.054688 C 64.996094 33.054688 66.515625 32.058594 67.101562 30.480469 L 68.15625 27.789062 C 68.390625 27.203125 68.390625 26.558594 68.097656 25.976562 C 67.804688 25.390625 67.394531 24.980469 66.808594 24.746094 C 66.808594 24.746094 66.75 24.746094 66.75 24.746094 C 66.75 24.746094 66.691406 24.746094 66.691406 24.6875 C 66.691406 24.6875 66.691406 24.628906 66.691406 24.628906 C 66.691406 24.570312 66.808594 24.570312 66.808594 24.570312 C 66.808594 24.570312 66.808594 24.570312 66.867188 24.570312 C 66.867188 24.570312 66.925781 24.570312 66.925781 24.570312 C 67.21875 24.6875 67.453125 24.746094 67.746094 24.746094 C 68.683594 24.746094 69.558594 24.160156 69.910156 23.285156 L 74.414062 11.875 C 75 10.414062 74.941406 8.832031 74.296875 7.429688 C 73.65625 6.027344 72.484375 4.914062 71.023438 4.328125 L 67.746094 3.101562 C 67.042969 2.867188 66.339844 2.691406 65.640625 2.691406 C 63.183594 2.691406 61.078125 4.152344 60.140625 6.375 L 55.636719 17.785156 C 55.167969 18.953125 55.753906 20.300781 56.921875 20.828125 C 56.980469 20.828125 57.039062 20.886719 56.980469 20.945312 C 56.980469 21.003906 56.863281 21.003906 56.863281 21.003906 C 56.863281 21.003906 56.804688 21.003906 56.804688 21.003906 C 56.570312 20.886719 56.277344 20.886719 56.046875 20.886719 C 55.109375 20.886719 54.230469 21.46875 53.878906 22.347656 L 52.828125 25.039062 C 52.417969 26.035156 52.476562 27.144531 52.886719 28.140625 C 53.296875 29.074219 53.996094 29.777344 54.933594 30.1875 L 52.828125 35.863281 L 46.800781 35.863281 L 46.800781 18.3125 C 50.019531 16.4375 52.066406 13.046875 52.066406 9.359375 C 52.066406 5.617188 50.078125 2.28125 46.683594 0.351562 C 46.332031 0.117188 45.925781 0.0585938 45.515625 0.0585938 C 45.105469 0.0585938 44.695312 0.175781 44.34375 0.351562 C 43.644531 0.761719 43.175781 1.519531 43.175781 2.398438 L 43.175781 7.664062 L 40.777344 8.773438 L 38.4375 7.664062 L 38.4375 2.574219 C 38.4375 1.753906 37.96875 0.9375 37.207031 0.527344 C 36.855469 0.351562 36.445312 0.234375 36.097656 0.234375 C 35.6875 0.234375 35.21875 0.351562 34.867188 0.585938 C 31.707031 2.515625 29.835938 5.851562 29.835938 9.417969 C 29.835938 13.105469 31.882812 16.496094 35.101562 18.371094 L 35.101562 35.863281 L 27.144531 35.863281 L 23.109375 25.097656 C 23.519531 24.746094 23.808594 24.335938 23.925781 23.925781 Z M 56.746094 72.601562 L 18.136719 72.601562 L 14.625 45.164062 L 60.257812 45.164062 Z M 55.109375 25.859375 L 56.164062 23.167969 C 56.453125 23.285156 56.746094 23.285156 56.980469 23.285156 C 57.976562 23.285156 58.910156 22.699219 59.320312 21.703125 C 59.789062 20.476562 59.203125 19.070312 57.976562 18.546875 L 62.480469 7.136719 C 63.007812 5.734375 64.351562 4.914062 65.757812 4.914062 C 66.167969 4.914062 66.632812 4.972656 67.042969 5.148438 L 70.320312 6.375 C 72.132812 7.078125 73.070312 9.066406 72.367188 10.882812 L 67.863281 22.289062 C 67.863281 22.289062 67.804688 22.289062 67.804688 22.289062 C 67.511719 22.171875 67.21875 22.113281 66.925781 22.113281 C 65.933594 22.113281 64.996094 22.699219 64.585938 23.695312 C 64.117188 24.921875 64.703125 26.382812 65.992188 26.851562 C 65.992188 26.851562 66.050781 26.851562 66.050781 26.851562 L 64.996094 29.542969 C 64.703125 30.246094 64.058594 30.65625 63.359375 30.65625 C 63.125 30.65625 62.949219 30.597656 62.714844 30.539062 L 56.105469 28.023438 C 55.226562 27.730469 54.757812 26.734375 55.109375 25.859375 Z M 60.375 32.234375 L 59.027344 35.863281 L 55.402344 35.863281 L 57.214844 31.066406 Z M 32.175781 9.359375 C 32.175781 6.492188 33.753906 3.976562 36.097656 2.515625 L 36.097656 9.125 L 40.835938 11.347656 L 45.574219 9.125 L 45.574219 2.398438 C 48.089844 3.859375 49.785156 6.433594 49.785156 9.359375 C 49.785156 12.695312 47.621094 15.621094 44.519531 16.847656 L 44.519531 35.804688 L 37.441406 35.804688 L 37.441406 16.90625 C 34.339844 15.621094 32.175781 12.753906 32.175781 9.359375 Z M 62.597656 38.144531 L 61.425781 42.824219 L 13.457031 42.824219 L 12.285156 38.144531 Z M 21.703125 23.167969 L 20.183594 23.925781 L 24.628906 35.804688 L 20.007812 35.804688 L 16.089844 25.214844 L 13.691406 26.152344 L 10.941406 22.933594 C 6.027344 23.050781 2.339844 28.726562 2.339844 28.726562 C 2.515625 20.769531 8.074219 19.011719 8.074219 19.011719 L 18.664062 14.917969 L 20.769531 17.199219 L 22.230469 16.613281 L 21.9375 13.632812 L 24.394531 12.695312 C 24.511719 12.636719 24.6875 12.636719 24.804688 12.636719 C 25.273438 12.636719 25.742188 12.929688 25.917969 13.398438 L 28.199219 19.539062 C 28.433594 20.183594 28.140625 20.828125 27.496094 21.0625 L 25.214844 21.9375 L 23.402344 19.832031 L 21.644531 20.535156 Z M 21.703125 23.167969"/></svg>