<svg xmlns="http://www.w3.org/2000/svg" width="75" viewBox="0 0 75 75" height="75" version="1.0"><defs><clipPath id="a"><path d="M 6 8.261719 L 39 8.261719 L 39 60 L 6 60 Z M 6 8.261719"/></clipPath><clipPath id="b"><path d="M 0 15 L 75 15 L 75 66.761719 L 0 66.761719 Z M 0 15"/></clipPath><clipPath id="c"><path d="M 36 8.261719 L 69 8.261719 L 69 60 L 36 60 Z M 36 8.261719"/></clipPath></defs><g clip-path="url(#a)"><path d="M 37.453125 59.875 L 7.25 59.875 C 7.105469 59.875 6.96875 59.847656 6.835938 59.792969 C 6.703125 59.738281 6.582031 59.660156 6.480469 59.558594 C 6.378906 59.457031 6.300781 59.339844 6.246094 59.207031 C 6.191406 59.074219 6.164062 58.933594 6.164062 58.792969 L 6.164062 9.34375 C 6.164062 9.203125 6.191406 9.0625 6.246094 8.929688 C 6.300781 8.796875 6.378906 8.679688 6.480469 8.578125 C 6.582031 8.476562 6.703125 8.398438 6.835938 8.34375 C 6.96875 8.289062 7.105469 8.257812 7.25 8.257812 L 30.476562 8.257812 C 31.007812 8.261719 31.53125 8.3125 32.050781 8.417969 C 32.566406 8.519531 33.070312 8.671875 33.558594 8.875 C 34.046875 9.078125 34.511719 9.328125 34.953125 9.621094 C 35.390625 9.914062 35.800781 10.25 36.171875 10.625 C 36.546875 11 36.882812 11.40625 37.175781 11.84375 C 37.46875 12.285156 37.71875 12.75 37.921875 13.238281 C 38.125 13.726562 38.277344 14.230469 38.378906 14.75 C 38.484375 15.269531 38.535156 15.792969 38.535156 16.324219 L 38.535156 58.792969 C 38.535156 58.933594 38.507812 59.074219 38.453125 59.207031 C 38.398438 59.339844 38.320312 59.457031 38.21875 59.558594 C 38.117188 59.660156 38 59.738281 37.867188 59.792969 C 37.734375 59.847656 37.59375 59.875 37.453125 59.875 Z M 8.335938 57.707031 L 36.367188 57.707031 L 36.367188 16.324219 C 36.367188 15.9375 36.328125 15.554688 36.253906 15.171875 C 36.175781 14.792969 36.0625 14.425781 35.917969 14.070312 C 35.769531 13.710938 35.585938 13.371094 35.371094 13.050781 C 35.15625 12.730469 34.914062 12.433594 34.640625 12.160156 C 34.367188 11.886719 34.070312 11.640625 33.746094 11.425781 C 33.425781 11.210938 33.085938 11.03125 32.730469 10.882812 C 32.371094 10.734375 32.003906 10.621094 31.625 10.546875 C 31.246094 10.46875 30.863281 10.429688 30.476562 10.429688 L 8.335938 10.429688 Z M 8.335938 57.707031"/></g><path d="M 37.351562 15.144531 C 37.417969 15.535156 37.453125 15.925781 37.453125 16.324219 L 37.453125 17.316406 L 37.488281 17.316406 L 37.488281 16.324219 C 37.488281 15.925781 37.523438 15.535156 37.589844 15.144531 Z M 37.351562 15.144531"/><g clip-path="url(#b)"><path d="M 71.019531 15.144531 L 67.691406 15.144531 L 67.691406 17.316406 L 71.019531 17.316406 C 71.253906 17.316406 71.480469 17.363281 71.699219 17.453125 C 71.914062 17.542969 72.105469 17.667969 72.273438 17.835938 C 72.4375 18.003906 72.566406 18.195312 72.65625 18.410156 C 72.746094 18.628906 72.792969 18.855469 72.792969 19.089844 L 72.792969 62.816406 C 72.792969 63.050781 72.746094 63.277344 72.65625 63.496094 C 72.566406 63.710938 72.4375 63.902344 72.273438 64.070312 C 72.105469 64.234375 71.914062 64.363281 71.699219 64.453125 C 71.480469 64.542969 71.253906 64.589844 71.019531 64.589844 L 3.980469 64.589844 C 3.746094 64.589844 3.519531 64.542969 3.300781 64.453125 C 3.085938 64.363281 2.894531 64.234375 2.726562 64.070312 C 2.5625 63.902344 2.433594 63.710938 2.34375 63.496094 C 2.253906 63.277344 2.207031 63.050781 2.207031 62.816406 L 2.207031 19.089844 C 2.207031 18.855469 2.253906 18.628906 2.34375 18.410156 C 2.433594 18.195312 2.5625 18.003906 2.726562 17.835938 C 2.894531 17.667969 3.085938 17.542969 3.300781 17.453125 C 3.519531 17.363281 3.746094 17.316406 3.980469 17.316406 L 7.25 17.316406 L 7.25 15.144531 L 3.980469 15.144531 C 3.457031 15.144531 2.953125 15.246094 2.472656 15.445312 C 1.988281 15.648438 1.5625 15.933594 1.191406 16.300781 C 0.824219 16.671875 0.539062 17.097656 0.339844 17.582031 C 0.136719 18.0625 0.0390625 18.566406 0.0390625 19.089844 L 0.0390625 62.816406 C 0.0390625 63.339844 0.136719 63.84375 0.339844 64.324219 C 0.539062 64.808594 0.824219 65.234375 1.195312 65.605469 C 1.5625 65.972656 1.988281 66.257812 2.472656 66.457031 C 2.953125 66.660156 3.457031 66.757812 3.980469 66.761719 L 71.019531 66.761719 C 71.542969 66.757812 72.046875 66.660156 72.527344 66.457031 C 73.011719 66.257812 73.4375 65.972656 73.808594 65.605469 C 74.175781 65.234375 74.460938 64.808594 74.660156 64.324219 C 74.863281 63.84375 74.960938 63.339844 74.964844 62.816406 L 74.964844 19.089844 C 74.960938 18.566406 74.863281 18.0625 74.660156 17.582031 C 74.460938 17.097656 74.175781 16.671875 73.808594 16.300781 C 73.4375 15.929688 73.011719 15.648438 72.527344 15.445312 C 72.046875 15.246094 71.542969 15.144531 71.019531 15.144531 Z M 71.019531 15.144531"/></g><g clip-path="url(#c)"><path d="M 67.691406 59.875 L 37.488281 59.875 C 37.34375 59.875 37.207031 59.847656 37.074219 59.792969 C 36.941406 59.738281 36.824219 59.660156 36.722656 59.558594 C 36.621094 59.457031 36.542969 59.339844 36.488281 59.207031 C 36.429688 59.074219 36.402344 58.933594 36.402344 58.792969 L 36.402344 16.324219 C 36.40625 15.792969 36.457031 15.269531 36.558594 14.75 C 36.664062 14.230469 36.816406 13.726562 37.019531 13.238281 C 37.222656 12.75 37.472656 12.285156 37.765625 11.84375 C 38.058594 11.40625 38.394531 11 38.765625 10.625 C 39.140625 10.25 39.546875 9.914062 39.988281 9.621094 C 40.429688 9.328125 40.890625 9.078125 41.378906 8.875 C 41.871094 8.671875 42.375 8.519531 42.890625 8.417969 C 43.410156 8.3125 43.933594 8.261719 44.464844 8.257812 L 67.691406 8.257812 C 67.835938 8.257812 67.972656 8.289062 68.105469 8.34375 C 68.238281 8.398438 68.355469 8.476562 68.460938 8.578125 C 68.5625 8.679688 68.640625 8.796875 68.695312 8.929688 C 68.75 9.0625 68.777344 9.203125 68.777344 9.34375 L 68.777344 58.792969 C 68.777344 58.933594 68.75 59.074219 68.695312 59.207031 C 68.640625 59.339844 68.5625 59.457031 68.460938 59.558594 C 68.355469 59.660156 68.238281 59.738281 68.105469 59.792969 C 67.972656 59.847656 67.835938 59.875 67.691406 59.875 Z M 38.574219 57.707031 L 66.605469 57.707031 L 66.605469 10.429688 L 44.464844 10.429688 C 44.078125 10.429688 43.695312 10.46875 43.316406 10.546875 C 42.9375 10.621094 42.566406 10.734375 42.210938 10.882812 C 41.855469 11.03125 41.515625 11.210938 41.195312 11.425781 C 40.871094 11.640625 40.574219 11.886719 40.300781 12.160156 C 40.027344 12.433594 39.785156 12.730469 39.570312 13.050781 C 39.355469 13.371094 39.171875 13.710938 39.023438 14.070312 C 38.875 14.425781 38.765625 14.792969 38.6875 15.171875 C 38.613281 15.554688 38.574219 15.9375 38.574219 16.324219 Z M 38.574219 57.707031"/></g><path d="M 29.488281 21.253906 L 15.210938 21.253906 C 15.066406 21.253906 14.929688 21.226562 14.796875 21.171875 C 14.664062 21.117188 14.546875 21.039062 14.445312 20.9375 C 14.34375 20.835938 14.265625 20.71875 14.210938 20.585938 C 14.152344 20.449219 14.125 20.3125 14.125 20.167969 C 14.125 20.023438 14.152344 19.886719 14.210938 19.753906 C 14.265625 19.621094 14.34375 19.503906 14.445312 19.402344 C 14.546875 19.300781 14.664062 19.21875 14.796875 19.164062 C 14.929688 19.109375 15.066406 19.082031 15.210938 19.082031 L 29.488281 19.082031 C 29.632812 19.082031 29.769531 19.109375 29.90625 19.164062 C 30.039062 19.21875 30.15625 19.300781 30.257812 19.402344 C 30.359375 19.503906 30.4375 19.621094 30.492188 19.753906 C 30.546875 19.886719 30.574219 20.023438 30.574219 20.167969 C 30.574219 20.3125 30.546875 20.449219 30.492188 20.585938 C 30.4375 20.71875 30.359375 20.835938 30.257812 20.9375 C 30.15625 21.039062 30.039062 21.117188 29.90625 21.171875 C 29.769531 21.226562 29.632812 21.253906 29.488281 21.253906 Z M 29.488281 21.253906"/><path d="M 29.488281 28.582031 L 15.210938 28.582031 C 15.066406 28.582031 14.929688 28.554688 14.796875 28.5 C 14.664062 28.445312 14.546875 28.367188 14.445312 28.265625 C 14.34375 28.164062 14.265625 28.046875 14.210938 27.914062 C 14.152344 27.78125 14.125 27.640625 14.125 27.496094 C 14.125 27.355469 14.152344 27.214844 14.210938 27.082031 C 14.265625 26.949219 14.34375 26.832031 14.445312 26.730469 C 14.546875 26.628906 14.664062 26.550781 14.796875 26.496094 C 14.929688 26.441406 15.066406 26.414062 15.210938 26.414062 L 29.488281 26.414062 C 29.632812 26.414062 29.769531 26.441406 29.90625 26.496094 C 30.039062 26.550781 30.15625 26.628906 30.257812 26.730469 C 30.359375 26.832031 30.4375 26.949219 30.492188 27.082031 C 30.546875 27.214844 30.574219 27.355469 30.574219 27.496094 C 30.574219 27.640625 30.546875 27.78125 30.492188 27.914062 C 30.4375 28.046875 30.359375 28.164062 30.257812 28.265625 C 30.15625 28.367188 30.039062 28.445312 29.90625 28.5 C 29.769531 28.554688 29.632812 28.582031 29.488281 28.582031 Z M 29.488281 28.582031"/><path d="M 29.488281 35.914062 L 15.210938 35.914062 C 15.066406 35.914062 14.929688 35.886719 14.796875 35.828125 C 14.664062 35.773438 14.546875 35.695312 14.445312 35.59375 C 14.34375 35.492188 14.265625 35.375 14.210938 35.242188 C 14.152344 35.109375 14.125 34.972656 14.125 34.828125 C 14.125 34.683594 14.152344 34.542969 14.210938 34.410156 C 14.265625 34.277344 14.34375 34.160156 14.445312 34.058594 C 14.546875 33.957031 14.664062 33.878906 14.796875 33.824219 C 14.929688 33.769531 15.066406 33.742188 15.210938 33.742188 L 29.488281 33.742188 C 29.632812 33.742188 29.769531 33.769531 29.90625 33.824219 C 30.039062 33.878906 30.15625 33.957031 30.257812 34.058594 C 30.359375 34.160156 30.4375 34.277344 30.492188 34.410156 C 30.546875 34.542969 30.574219 34.683594 30.574219 34.828125 C 30.574219 34.972656 30.546875 35.109375 30.492188 35.242188 C 30.4375 35.375 30.359375 35.492188 30.257812 35.59375 C 30.15625 35.695312 30.039062 35.773438 29.90625 35.828125 C 29.769531 35.886719 29.632812 35.914062 29.488281 35.914062 Z M 29.488281 35.914062"/><path d="M 29.488281 43.242188 L 15.210938 43.242188 C 15.066406 43.242188 14.929688 43.214844 14.796875 43.160156 C 14.664062 43.105469 14.546875 43.027344 14.445312 42.925781 C 14.34375 42.824219 14.265625 42.707031 14.210938 42.570312 C 14.152344 42.4375 14.125 42.300781 14.125 42.15625 C 14.125 42.011719 14.152344 41.875 14.210938 41.742188 C 14.265625 41.609375 14.34375 41.492188 14.445312 41.390625 C 14.546875 41.289062 14.664062 41.207031 14.796875 41.152344 C 14.929688 41.097656 15.066406 41.070312 15.210938 41.070312 L 29.488281 41.070312 C 29.632812 41.070312 29.769531 41.097656 29.90625 41.152344 C 30.039062 41.207031 30.15625 41.289062 30.257812 41.390625 C 30.359375 41.492188 30.4375 41.609375 30.492188 41.742188 C 30.546875 41.875 30.574219 42.011719 30.574219 42.15625 C 30.574219 42.300781 30.546875 42.4375 30.492188 42.570312 C 30.4375 42.707031 30.359375 42.824219 30.257812 42.925781 C 30.15625 43.027344 30.039062 43.105469 29.90625 43.160156 C 29.769531 43.214844 29.632812 43.242188 29.488281 43.242188 Z M 29.488281 43.242188"/><path d="M 29.488281 50.570312 L 15.210938 50.570312 C 15.066406 50.570312 14.929688 50.542969 14.796875 50.488281 C 14.664062 50.433594 14.546875 50.355469 14.445312 50.253906 C 14.34375 50.152344 14.265625 50.035156 14.210938 49.902344 C 14.152344 49.769531 14.125 49.628906 14.125 49.484375 C 14.125 49.34375 14.152344 49.203125 14.210938 49.070312 C 14.265625 48.9375 14.34375 48.820312 14.445312 48.71875 C 14.546875 48.617188 14.664062 48.539062 14.796875 48.484375 C 14.929688 48.429688 15.066406 48.402344 15.210938 48.402344 L 29.488281 48.402344 C 29.632812 48.402344 29.769531 48.429688 29.90625 48.484375 C 30.039062 48.539062 30.15625 48.617188 30.257812 48.71875 C 30.359375 48.820312 30.4375 48.9375 30.492188 49.070312 C 30.546875 49.203125 30.574219 49.34375 30.574219 49.484375 C 30.574219 49.628906 30.546875 49.769531 30.492188 49.902344 C 30.4375 50.035156 30.359375 50.152344 30.257812 50.253906 C 30.15625 50.355469 30.039062 50.433594 29.90625 50.488281 C 29.769531 50.542969 29.632812 50.570312 29.488281 50.570312 Z M 29.488281 50.570312"/><path d="M 59.730469 21.253906 L 45.453125 21.253906 C 45.308594 21.253906 45.167969 21.226562 45.035156 21.171875 C 44.902344 21.117188 44.785156 21.039062 44.683594 20.9375 C 44.582031 20.835938 44.503906 20.71875 44.449219 20.585938 C 44.394531 20.449219 44.367188 20.3125 44.367188 20.167969 C 44.367188 20.023438 44.394531 19.886719 44.449219 19.753906 C 44.503906 19.621094 44.582031 19.503906 44.683594 19.402344 C 44.785156 19.300781 44.902344 19.21875 45.035156 19.164062 C 45.167969 19.109375 45.308594 19.082031 45.453125 19.082031 L 59.730469 19.082031 C 59.871094 19.082031 60.011719 19.109375 60.144531 19.164062 C 60.277344 19.21875 60.394531 19.300781 60.496094 19.402344 C 60.597656 19.503906 60.675781 19.621094 60.730469 19.753906 C 60.785156 19.886719 60.8125 20.023438 60.8125 20.167969 C 60.8125 20.3125 60.785156 20.449219 60.730469 20.585938 C 60.675781 20.71875 60.597656 20.835938 60.496094 20.9375 C 60.394531 21.039062 60.277344 21.117188 60.144531 21.171875 C 60.011719 21.226562 59.871094 21.253906 59.730469 21.253906 Z M 59.730469 21.253906"/><path d="M 59.730469 28.582031 L 45.453125 28.582031 C 45.308594 28.582031 45.167969 28.554688 45.035156 28.5 C 44.902344 28.445312 44.785156 28.367188 44.683594 28.265625 C 44.582031 28.164062 44.503906 28.046875 44.449219 27.914062 C 44.394531 27.78125 44.367188 27.640625 44.367188 27.496094 C 44.367188 27.355469 44.394531 27.214844 44.449219 27.082031 C 44.503906 26.949219 44.582031 26.832031 44.683594 26.730469 C 44.785156 26.628906 44.902344 26.550781 45.035156 26.496094 C 45.167969 26.441406 45.308594 26.414062 45.453125 26.414062 L 59.730469 26.414062 C 59.871094 26.414062 60.011719 26.441406 60.144531 26.496094 C 60.277344 26.550781 60.394531 26.628906 60.496094 26.730469 C 60.597656 26.832031 60.675781 26.949219 60.730469 27.082031 C 60.785156 27.214844 60.8125 27.355469 60.8125 27.496094 C 60.8125 27.640625 60.785156 27.78125 60.730469 27.914062 C 60.675781 28.046875 60.597656 28.164062 60.496094 28.265625 C 60.394531 28.367188 60.277344 28.445312 60.144531 28.5 C 60.011719 28.554688 59.871094 28.582031 59.730469 28.582031 Z M 59.730469 28.582031"/><path d="M 59.730469 35.914062 L 45.453125 35.914062 C 45.308594 35.914062 45.167969 35.886719 45.035156 35.828125 C 44.902344 35.773438 44.785156 35.695312 44.683594 35.59375 C 44.582031 35.492188 44.503906 35.375 44.449219 35.242188 C 44.394531 35.109375 44.367188 34.972656 44.367188 34.828125 C 44.367188 34.683594 44.394531 34.542969 44.449219 34.410156 C 44.503906 34.277344 44.582031 34.160156 44.683594 34.058594 C 44.785156 33.957031 44.902344 33.878906 45.035156 33.824219 C 45.167969 33.769531 45.308594 33.742188 45.453125 33.742188 L 59.730469 33.742188 C 59.871094 33.742188 60.011719 33.769531 60.144531 33.824219 C 60.277344 33.878906 60.394531 33.957031 60.496094 34.058594 C 60.597656 34.160156 60.675781 34.277344 60.730469 34.410156 C 60.785156 34.542969 60.8125 34.683594 60.8125 34.828125 C 60.8125 34.972656 60.785156 35.109375 60.730469 35.242188 C 60.675781 35.375 60.597656 35.492188 60.496094 35.59375 C 60.394531 35.695312 60.277344 35.773438 60.144531 35.828125 C 60.011719 35.886719 59.871094 35.914062 59.730469 35.914062 Z M 59.730469 35.914062"/><path d="M 59.730469 43.242188 L 45.453125 43.242188 C 45.308594 43.242188 45.167969 43.214844 45.035156 43.160156 C 44.902344 43.105469 44.785156 43.027344 44.683594 42.925781 C 44.582031 42.824219 44.503906 42.707031 44.449219 42.570312 C 44.394531 42.4375 44.367188 42.300781 44.367188 42.15625 C 44.367188 42.011719 44.394531 41.875 44.449219 41.742188 C 44.503906 41.609375 44.582031 41.492188 44.683594 41.390625 C 44.785156 41.289062 44.902344 41.207031 45.035156 41.152344 C 45.167969 41.097656 45.308594 41.070312 45.453125 41.070312 L 59.730469 41.070312 C 59.871094 41.070312 60.011719 41.097656 60.144531 41.152344 C 60.277344 41.207031 60.394531 41.289062 60.496094 41.390625 C 60.597656 41.492188 60.675781 41.609375 60.730469 41.742188 C 60.785156 41.875 60.8125 42.011719 60.8125 42.15625 C 60.8125 42.300781 60.785156 42.4375 60.730469 42.570312 C 60.675781 42.707031 60.597656 42.824219 60.496094 42.925781 C 60.394531 43.027344 60.277344 43.105469 60.144531 43.160156 C 60.011719 43.214844 59.871094 43.242188 59.730469 43.242188 Z M 59.730469 43.242188"/><path d="M 59.730469 50.570312 L 45.453125 50.570312 C 45.308594 50.570312 45.167969 50.542969 45.035156 50.488281 C 44.902344 50.433594 44.785156 50.355469 44.683594 50.253906 C 44.582031 50.152344 44.503906 50.035156 44.449219 49.902344 C 44.394531 49.769531 44.367188 49.628906 44.367188 49.484375 C 44.367188 49.34375 44.394531 49.203125 44.449219 49.070312 C 44.503906 48.9375 44.582031 48.820312 44.683594 48.71875 C 44.785156 48.617188 44.902344 48.539062 45.035156 48.484375 C 45.167969 48.429688 45.308594 48.402344 45.453125 48.402344 L 59.730469 48.402344 C 59.871094 48.402344 60.011719 48.429688 60.144531 48.484375 C 60.277344 48.539062 60.394531 48.617188 60.496094 48.71875 C 60.597656 48.820312 60.675781 48.9375 60.730469 49.070312 C 60.785156 49.203125 60.8125 49.34375 60.8125 49.484375 C 60.8125 49.628906 60.785156 49.769531 60.730469 49.902344 C 60.675781 50.035156 60.597656 50.152344 60.496094 50.253906 C 60.394531 50.355469 60.277344 50.433594 60.144531 50.488281 C 60.011719 50.542969 59.871094 50.570312 59.730469 50.570312 Z M 59.730469 50.570312"/></svg>