<svg xmlns="http://www.w3.org/2000/svg" width="75" viewBox="0 0 75 75" height="75" version="1.0"><defs><clipPath id="a"><path d="M 17 12.238281 L 51 12.238281 L 51 62.488281 L 17 62.488281 Z M 17 12.238281"/></clipPath><clipPath id="b"><path d="M 0 27 L 26 27 L 26 62.488281 L 0 62.488281 Z M 0 27"/></clipPath><clipPath id="c"><path d="M 52.476562 13.316406 L 75 13.316406 L 75 25 L 52.476562 25 Z M 52.476562 13.316406"/></clipPath><clipPath id="d"><path d="M 52.476562 24 L 75 24 L 75 35.066406 L 52.476562 35.066406 Z M 52.476562 24"/></clipPath><clipPath id="e"><path d="M 52.476562 55 L 75 55 L 75 61.746094 L 52.476562 61.746094 Z M 52.476562 55"/></clipPath><clipPath id="f"><path d="M 52.476562 47 L 75 47 L 75 56 L 52.476562 56 Z M 52.476562 47"/></clipPath><clipPath id="g"><path d="M 52.476562 39.996094 L 75 39.996094 L 75 48 L 52.476562 48 Z M 52.476562 39.996094"/></clipPath></defs><g clip-path="url(#a)"><path d="M 50.835938 16.945312 C 50.835938 16.867188 50.835938 16.789062 50.796875 16.710938 C 50.796875 16.710938 50.796875 16.671875 50.796875 16.671875 C 50.757812 16.59375 50.757812 16.554688 50.71875 16.472656 C 50.71875 16.472656 50.71875 16.472656 50.679688 16.433594 C 50.640625 16.394531 50.601562 16.316406 50.523438 16.277344 L 46.644531 13.53125 C 45.433594 12.667969 44.023438 12.238281 42.574219 12.238281 L 25.460938 12.238281 C 23.972656 12.238281 22.5625 12.707031 21.386719 13.53125 L 17.511719 16.277344 C 17.472656 16.316406 17.394531 16.355469 17.355469 16.433594 C 17.355469 16.433594 17.355469 16.433594 17.316406 16.472656 C 17.277344 16.511719 17.238281 16.59375 17.238281 16.671875 C 17.238281 16.671875 17.238281 16.710938 17.238281 16.710938 C 17.238281 16.789062 17.199219 16.828125 17.199219 16.90625 L 17.199219 26.988281 C 17.746094 27.144531 18.253906 27.339844 18.765625 27.574219 L 18.765625 17.730469 L 49.308594 17.730469 L 49.308594 56.957031 L 42.652344 56.957031 L 42.652344 58.527344 L 49.308594 58.527344 L 49.308594 60.878906 L 41.085938 60.878906 L 41.085938 50.679688 C 41.085938 46.796875 37.914062 43.621094 34.035156 43.621094 C 30.160156 43.621094 26.988281 46.796875 26.988281 50.679688 L 26.988281 60.878906 L 18.726562 60.878906 L 18.726562 58.527344 L 25.382812 58.527344 L 25.382812 56.957031 L 19.039062 56.957031 L 18.726562 57.585938 L 18.292969 58.449219 L 18.253906 58.527344 L 17.199219 60.605469 L 17.199219 60.878906 C 17.199219 61.742188 17.902344 62.449219 18.765625 62.449219 L 49.308594 62.449219 C 50.171875 62.449219 50.875 61.742188 50.875 60.878906 Z M 20.410156 16.160156 L 22.289062 14.828125 C 23.191406 14.160156 24.285156 13.808594 25.460938 13.808594 L 42.574219 13.808594 C 43.707031 13.808594 44.804688 14.160156 45.746094 14.828125 L 47.625 16.160156 Z M 39.480469 60.878906 L 28.515625 60.878906 L 28.515625 50.679688 C 28.515625 47.660156 30.980469 45.1875 33.996094 45.1875 C 37.011719 45.1875 39.480469 47.660156 39.480469 50.679688 Z M 39.480469 60.878906"/></g><path d="M 42.613281 25.574219 L 46.527344 25.574219 C 46.957031 25.574219 47.3125 25.222656 47.3125 24.789062 L 47.3125 20.867188 C 47.3125 20.4375 46.957031 20.082031 46.527344 20.082031 L 42.613281 20.082031 C 42.179688 20.082031 41.828125 20.4375 41.828125 20.867188 L 41.828125 24.789062 C 41.828125 25.222656 42.179688 25.574219 42.613281 25.574219 Z M 43.394531 21.652344 L 45.746094 21.652344 L 45.746094 24.007812 L 43.394531 24.007812 Z M 43.394531 21.652344"/><path d="M 41.828125 32.636719 C 41.828125 33.066406 42.179688 33.421875 42.613281 33.421875 L 46.527344 33.421875 C 46.957031 33.421875 47.3125 33.066406 47.3125 32.636719 L 47.3125 28.714844 C 47.3125 28.28125 46.957031 27.929688 46.527344 27.929688 L 42.613281 27.929688 C 42.179688 27.929688 41.828125 28.28125 41.828125 28.714844 Z M 43.394531 29.496094 L 45.746094 29.496094 L 45.746094 31.851562 L 43.394531 31.851562 Z M 43.394531 29.496094"/><path d="M 41.828125 40.480469 C 41.828125 40.914062 42.179688 41.265625 42.613281 41.265625 L 46.527344 41.265625 C 46.957031 41.265625 47.3125 40.914062 47.3125 40.480469 L 47.3125 36.558594 C 47.3125 36.128906 46.957031 35.773438 46.527344 35.773438 L 42.613281 35.773438 C 42.179688 35.773438 41.828125 36.128906 41.828125 36.558594 Z M 43.394531 37.34375 L 45.746094 37.34375 L 45.746094 39.695312 L 43.394531 39.695312 Z M 43.394531 37.34375"/><path d="M 35.5625 25.574219 L 39.480469 25.574219 C 39.910156 25.574219 40.261719 25.222656 40.261719 24.789062 L 40.261719 20.867188 C 40.261719 20.4375 39.910156 20.082031 39.480469 20.082031 L 35.5625 20.082031 C 35.132812 20.082031 34.78125 20.4375 34.78125 20.867188 L 34.78125 24.789062 C 34.78125 25.222656 35.132812 25.574219 35.5625 25.574219 Z M 36.347656 21.652344 L 38.695312 21.652344 L 38.695312 24.007812 L 36.347656 24.007812 Z M 36.347656 21.652344"/><path d="M 34.78125 32.636719 C 34.78125 33.066406 35.132812 33.421875 35.5625 33.421875 L 39.480469 33.421875 C 39.910156 33.421875 40.261719 33.066406 40.261719 32.636719 L 40.261719 28.714844 C 40.261719 28.28125 39.910156 27.929688 39.480469 27.929688 L 35.5625 27.929688 C 35.132812 27.929688 34.78125 28.28125 34.78125 28.714844 Z M 36.347656 29.496094 L 38.695312 29.496094 L 38.695312 31.851562 L 36.347656 31.851562 Z M 36.347656 29.496094"/><path d="M 34.78125 40.480469 C 34.78125 40.914062 35.132812 41.265625 35.5625 41.265625 L 39.480469 41.265625 C 39.910156 41.265625 40.261719 40.914062 40.261719 40.480469 L 40.261719 36.558594 C 40.261719 36.128906 39.910156 35.773438 39.480469 35.773438 L 35.5625 35.773438 C 35.132812 35.773438 34.78125 36.128906 34.78125 36.558594 Z M 36.347656 37.34375 L 38.695312 37.34375 L 38.695312 39.695312 L 36.347656 39.695312 Z M 36.347656 37.34375"/><path d="M 28.515625 25.574219 L 32.429688 25.574219 C 32.863281 25.574219 33.214844 25.222656 33.214844 24.789062 L 33.214844 20.867188 C 33.214844 20.4375 32.863281 20.082031 32.429688 20.082031 L 28.515625 20.082031 C 28.085938 20.082031 27.730469 20.4375 27.730469 20.867188 L 27.730469 24.789062 C 27.730469 25.222656 28.085938 25.574219 28.515625 25.574219 Z M 29.296875 21.652344 L 31.648438 21.652344 L 31.648438 24.007812 L 29.296875 24.007812 Z M 29.296875 21.652344"/><path d="M 27.730469 32.636719 C 27.730469 33.066406 28.085938 33.421875 28.515625 33.421875 L 32.429688 33.421875 C 32.863281 33.421875 33.214844 33.066406 33.214844 32.636719 L 33.214844 28.714844 C 33.214844 28.28125 32.863281 27.929688 32.429688 27.929688 L 28.515625 27.929688 C 28.085938 27.929688 27.730469 28.28125 27.730469 28.714844 Z M 29.296875 29.496094 L 31.648438 29.496094 L 31.648438 31.851562 L 29.296875 31.851562 Z M 29.296875 29.496094"/><path d="M 27.730469 40.480469 C 27.730469 40.914062 28.085938 41.265625 28.515625 41.265625 L 32.429688 41.265625 C 32.863281 41.265625 33.214844 40.914062 33.214844 40.480469 L 33.214844 36.558594 C 33.214844 36.128906 32.863281 35.773438 32.429688 35.773438 L 28.515625 35.773438 C 28.085938 35.773438 27.730469 36.128906 27.730469 36.558594 Z M 29.296875 37.34375 L 31.648438 37.34375 L 31.648438 39.695312 L 29.296875 39.695312 Z M 29.296875 37.34375"/><path d="M 26.164062 20.867188 C 26.164062 20.4375 25.8125 20.082031 25.382812 20.082031 L 21.464844 20.082031 C 21.035156 20.082031 20.683594 20.4375 20.683594 20.867188 L 20.683594 24.789062 C 20.683594 25.222656 21.035156 25.574219 21.464844 25.574219 L 25.382812 25.574219 C 25.8125 25.574219 26.164062 25.222656 26.164062 24.789062 Z M 24.597656 24.007812 L 22.25 24.007812 L 22.25 21.652344 L 24.597656 21.652344 Z M 24.597656 24.007812"/><path d="M 24.011719 31.851562 C 24.246094 32.164062 24.480469 32.519531 24.71875 32.871094 C 24.835938 33.066406 24.914062 33.222656 25.03125 33.421875 L 25.382812 33.421875 C 25.8125 33.421875 26.164062 33.066406 26.164062 32.636719 L 26.164062 28.714844 C 26.164062 28.28125 25.8125 27.929688 25.382812 27.929688 L 21.464844 27.929688 C 21.035156 27.929688 20.683594 28.28125 20.683594 28.675781 C 21.230469 29.027344 21.742188 29.457031 22.25 29.890625 L 22.25 29.496094 L 24.597656 29.496094 L 24.597656 31.851562 Z M 24.011719 31.851562"/><g clip-path="url(#b)"><path d="M 23.386719 33.695312 C 21.191406 30.085938 17.238281 27.929688 12.851562 27.929688 C 8.464844 27.929688 4.511719 30.085938 2.316406 33.695312 C 0.28125 37.070312 0.125 40.992188 1.964844 44.484375 L 10.582031 61.113281 C 11.011719 61.9375 11.871094 62.488281 12.851562 62.488281 C 13.832031 62.488281 14.691406 61.976562 15.121094 61.113281 L 23.738281 44.484375 C 25.539062 40.992188 25.421875 37.070312 23.386719 33.695312 Z M 22.367188 43.738281 L 13.753906 60.371094 C 13.597656 60.683594 13.242188 60.878906 12.851562 60.878906 C 12.460938 60.878906 12.109375 60.683594 11.949219 60.371094 L 3.335938 43.738281 C 1.808594 40.757812 1.925781 37.382812 3.648438 34.519531 C 5.566406 31.378906 9.015625 29.496094 12.851562 29.496094 C 16.6875 29.496094 20.136719 31.378906 22.015625 34.519531 C 23.777344 37.382812 23.894531 40.757812 22.367188 43.738281 Z M 22.367188 43.738281"/></g><path d="M 12.851562 32.636719 C 8.976562 32.636719 5.804688 35.8125 5.804688 39.695312 C 5.804688 43.582031 8.976562 46.757812 12.851562 46.757812 C 16.726562 46.757812 19.898438 43.582031 19.898438 39.695312 C 19.898438 35.8125 16.726562 32.636719 12.851562 32.636719 Z M 12.851562 45.1875 C 9.835938 45.1875 7.371094 42.71875 7.371094 39.695312 C 7.371094 36.675781 9.835938 34.203125 12.851562 34.203125 C 15.867188 34.203125 18.332031 36.675781 18.332031 39.695312 C 18.332031 42.71875 15.867188 45.1875 12.851562 45.1875 Z M 12.851562 45.1875"/><g clip-path="url(#c)"><path fill="#EEE" d="M 79.136719 13.316406 L 55.816406 13.316406 C 53.976562 13.316406 52.484375 14.816406 52.484375 16.664062 L 52.484375 24.191406 L 82.46875 24.191406 L 82.46875 16.664062 C 82.46875 14.816406 80.976562 13.316406 79.136719 13.316406 Z M 79.136719 13.316406"/></g><g clip-path="url(#d)"><path fill="#DC143C" d="M 52.484375 31.722656 C 52.484375 33.570312 53.976562 35.066406 55.816406 35.066406 L 79.136719 35.066406 C 80.976562 35.066406 82.46875 33.570312 82.46875 31.722656 L 82.46875 24.191406 L 52.484375 24.191406 Z M 52.484375 31.722656"/></g><g clip-path="url(#e)"><path fill="#FFCD05" d="M 52.484375 58.398438 C 52.484375 60.246094 53.976562 61.746094 55.816406 61.746094 L 79.136719 61.746094 C 80.976562 61.746094 82.46875 60.246094 82.46875 58.398438 L 82.46875 55.050781 L 52.484375 55.050781 Z M 52.484375 58.398438"/></g><g clip-path="url(#f)"><path fill="#ED1F24" d="M 52.484375 47.523438 L 82.46875 47.523438 L 82.46875 55.050781 L 52.484375 55.050781 Z M 52.484375 47.523438"/></g><g clip-path="url(#g)"><path fill="#141414" d="M 79.136719 39.996094 L 55.816406 39.996094 C 53.976562 39.996094 52.484375 41.492188 52.484375 43.339844 L 52.484375 47.523438 L 82.46875 47.523438 L 82.46875 43.339844 C 82.46875 41.492188 80.976562 39.996094 79.136719 39.996094 Z M 79.136719 39.996094"/></g></svg>