<svg xmlns="http://www.w3.org/2000/svg" width="75" viewBox="0 0 75 75" height="75" version="1.0"><path d="M 32.175781 69.554688 L 33.824219 59.878906 C 33.910156 59.355469 33.882812 58.839844 33.742188 58.328125 C 33.605469 57.816406 33.363281 57.359375 33.023438 56.953125 C 32.675781 56.542969 32.261719 56.222656 31.777344 55.996094 C 31.289062 55.765625 30.777344 55.648438 30.242188 55.644531 L 23.683594 55.644531 L 24.582031 53.007812 C 24.761719 52.480469 24.8125 51.9375 24.730469 51.386719 C 24.652344 50.832031 24.445312 50.328125 24.121094 49.875 C 23.722656 49.351562 23.21875 48.964844 22.609375 48.714844 C 21.996094 48.464844 21.367188 48.386719 20.714844 48.480469 C 20.0625 48.578125 19.480469 48.828125 18.964844 49.242188 C 18.453125 49.652344 18.078125 50.167969 17.84375 50.78125 L 16.199219 55.621094 L 12.097656 55.621094 L 12.097656 54.433594 C 12.097656 54.273438 12.066406 54.121094 12.003906 53.972656 C 11.941406 53.824219 11.855469 53.695312 11.742188 53.582031 C 11.628906 53.464844 11.5 53.378906 11.351562 53.316406 C 11.203125 53.257812 11.046875 53.226562 10.886719 53.226562 L 1.210938 53.226562 C 1.050781 53.226562 0.894531 53.257812 0.746094 53.316406 C 0.597656 53.378906 0.46875 53.464844 0.355469 53.582031 C 0.242188 53.695312 0.152344 53.824219 0.09375 53.972656 C 0.03125 54.121094 0 54.273438 0 54.433594 L 0 73.789062 C 0 73.949219 0.03125 74.105469 0.09375 74.253906 C 0.152344 74.402344 0.242188 74.53125 0.355469 74.644531 C 0.46875 74.757812 0.597656 74.847656 0.746094 74.90625 C 0.894531 74.96875 1.050781 75 1.210938 75 L 10.886719 75 C 11.046875 75 11.203125 74.96875 11.351562 74.90625 C 11.5 74.847656 11.628906 74.757812 11.742188 74.644531 C 11.855469 74.53125 11.941406 74.402344 12.003906 74.253906 C 12.066406 74.105469 12.097656 73.949219 12.097656 73.789062 L 12.097656 72.582031 L 28.546875 72.582031 C 28.980469 72.585938 29.402344 72.515625 29.8125 72.371094 C 30.21875 72.226562 30.589844 72.015625 30.921875 71.738281 C 31.253906 71.460938 31.53125 71.136719 31.746094 70.761719 C 31.960938 70.386719 32.105469 69.984375 32.175781 69.554688 Z M 9.675781 72.582031 L 2.417969 72.582031 L 2.417969 55.644531 L 9.675781 55.644531 Z M 12.097656 58.066406 L 17.054688 58.066406 C 17.328125 58.078125 17.574219 58.007812 17.800781 57.855469 C 18.023438 57.703125 18.179688 57.5 18.265625 57.242188 L 20.203125 51.554688 C 20.28125 51.328125 20.417969 51.144531 20.617188 51.007812 C 20.816406 50.867188 21.035156 50.800781 21.277344 50.804688 C 21.671875 50.800781 21.980469 50.957031 22.210938 51.277344 C 22.421875 51.566406 22.472656 51.882812 22.355469 52.222656 L 20.914062 56.46875 C 20.78125 56.855469 20.835938 57.21875 21.074219 57.554688 C 21.3125 57.894531 21.640625 58.0625 22.050781 58.066406 L 30.242188 58.066406 C 30.636719 58.0625 30.964844 58.210938 31.222656 58.511719 C 31.453125 58.789062 31.542969 59.109375 31.488281 59.46875 L 29.84375 69.144531 C 29.792969 69.441406 29.65625 69.683594 29.425781 69.878906 C 29.195312 70.070312 28.933594 70.164062 28.632812 70.160156 L 12.097656 70.160156 Z M 12.097656 58.066406"/><path d="M 73.789062 0 L 20.566406 0 C 20.402344 0 20.25 0.03125 20.101562 0.09375 C 19.953125 0.152344 19.824219 0.242188 19.710938 0.355469 C 19.597656 0.46875 19.507812 0.597656 19.445312 0.746094 C 19.386719 0.894531 19.355469 1.050781 19.355469 1.210938 L 19.355469 37.5 C 19.355469 37.660156 19.386719 37.816406 19.445312 37.964844 C 19.507812 38.109375 19.597656 38.242188 19.710938 38.355469 C 19.824219 38.46875 19.953125 38.554688 20.101562 38.617188 C 20.25 38.679688 20.402344 38.710938 20.566406 38.710938 L 37.5 38.710938 L 29.214844 50.09375 C 29.046875 50.320312 28.96875 50.578125 28.984375 50.863281 C 28.996094 51.144531 29.097656 51.390625 29.285156 51.605469 C 29.539062 51.894531 29.859375 52.03125 30.242188 52.015625 C 30.449219 52.015625 30.640625 51.96875 30.824219 51.871094 L 54.75 38.710938 L 73.789062 38.710938 C 73.949219 38.710938 74.105469 38.679688 74.253906 38.617188 C 74.402344 38.554688 74.53125 38.46875 74.644531 38.355469 C 74.757812 38.242188 74.847656 38.109375 74.90625 37.964844 C 74.96875 37.816406 75 37.660156 75 37.5 L 75 1.210938 C 75 1.050781 74.96875 0.894531 74.90625 0.746094 C 74.847656 0.597656 74.757812 0.46875 74.644531 0.355469 C 74.53125 0.242188 74.402344 0.152344 74.253906 0.09375 C 74.105469 0.03125 73.949219 0 73.789062 0 Z M 72.582031 36.289062 L 54.433594 36.289062 C 54.230469 36.289062 54.035156 36.335938 53.855469 36.433594 L 34.402344 47.175781 L 40.898438 38.261719 C 41.164062 37.878906 41.199219 37.472656 40.996094 37.050781 C 40.90625 36.832031 40.765625 36.648438 40.570312 36.511719 C 40.375 36.375 40.160156 36.300781 39.917969 36.289062 L 21.773438 36.289062 L 21.773438 2.417969 L 72.582031 2.417969 Z M 72.582031 36.289062"/><path d="M 33.207031 25.464844 L 40.148438 30.035156 C 40.347656 30.175781 40.570312 30.246094 40.816406 30.242188 C 41.101562 30.242188 41.355469 30.15625 41.578125 29.976562 L 61.246094 13.921875 C 61.542969 13.683594 61.691406 13.371094 61.695312 12.992188 L 61.695312 7.257812 C 61.691406 7.027344 61.628906 6.8125 61.503906 6.613281 C 61.382812 6.417969 61.214844 6.269531 61.003906 6.167969 C 60.792969 6.066406 60.574219 6.03125 60.34375 6.058594 C 60.109375 6.082031 59.902344 6.167969 59.722656 6.316406 L 40.742188 21.773438 L 34.535156 17.683594 C 34.136719 17.421875 33.722656 17.402344 33.300781 17.628906 C 32.875 17.855469 32.664062 18.210938 32.660156 18.691406 L 32.660156 24.421875 C 32.648438 24.871094 32.832031 25.21875 33.207031 25.464844 Z M 35.082031 20.964844 L 40.148438 24.316406 C 40.375 24.453125 40.621094 24.511719 40.882812 24.488281 C 41.144531 24.464844 41.378906 24.367188 41.578125 24.195312 L 59.273438 9.808594 L 59.273438 12.410156 L 40.742188 27.53125 L 35.082031 23.792969 Z M 35.082031 20.964844"/></svg>