<svg xmlns="http://www.w3.org/2000/svg" width="75" viewBox="0 0 75 75" height="75" version="1.0"><defs><clipPath id="a"><path d="M 0.898438 8.261719 L 33.304688 8.261719 L 33.304688 53.261719 L 0.898438 53.261719 Z M 0.898438 8.261719"/></clipPath><clipPath id="b"><path d="M 24 29 L 75 29 L 75 57 L 24 57 Z M 24 29"/></clipPath><clipPath id="c"><path d="M 42.945312 14.617188 L 76.667969 31.023438 L 56.980469 71.488281 L 23.257812 55.082031 Z M 42.945312 14.617188"/></clipPath><clipPath id="d"><path d="M 42.945312 14.617188 L 76.667969 31.023438 L 56.980469 71.488281 L 23.257812 55.082031 Z M 42.945312 14.617188"/></clipPath></defs><g clip-path="url(#a)"><path fill="#C9E265" d="M 4.28125 8.261719 C -2.679688 26.835938 -0.964844 50.398438 25.578125 53.261719 C 23.867188 41.691406 20.226562 32.351562 14.980469 22.484375 C 21.835938 30.972656 25.578125 41.160156 28.148438 51.988281 C 40.78125 33.628906 29.21875 15.054688 4.28125 8.261719"/></g><g clip-path="url(#b)"><g clip-path="url(#c)"><g clip-path="url(#d)"><path fill="#C9E265" d="M 33.394531 46.773438 C 33.394531 46.773438 34.066406 32.953125 57.785156 35.273438 C 71.3125 36.597656 74.296875 29.871094 74.296875 29.871094 C 74.296875 29.871094 62.160156 60.769531 41.136719 54.046875 C 41.136719 54.046875 35.230469 52.648438 33.394531 49.382812 C 33.394531 49.382812 27.84375 53.753906 26.875 56.691406 L 24.25 55.566406 C 24.25 55.566406 34.09375 46.261719 36.730469 45.890625 Z M 33.394531 46.773438"/></g></g></g></svg>