<svg xmlns="http://www.w3.org/2000/svg" width="75" viewBox="0 0 75 75" height="75" version="1.0"><defs><clipPath id="a"><path d="M 0.683594 58 L 74.183594 58 L 74.183594 70 L 0.683594 70 Z M 0.683594 58"/></clipPath></defs><path d="M 13.070312 74.964844 L 8.96875 74.964844 C 8.261719 74.964844 7.6875 74.40625 7.6875 73.722656 L 7.6875 68.800781 C 7.6875 68.117188 8.261719 67.558594 8.96875 67.558594 L 13.070312 67.558594 C 13.777344 67.558594 14.351562 68.117188 14.351562 68.800781 L 14.351562 73.722656 C 14.351562 74.40625 13.777344 74.964844 13.070312 74.964844 Z M 9.136719 73.511719 L 12.902344 73.511719 L 12.902344 69.011719 L 9.136719 69.011719 Z M 9.136719 73.511719"/><path d="M 65.984375 74.964844 L 61.886719 74.964844 C 61.179688 74.964844 60.601562 74.40625 60.601562 73.722656 L 60.601562 68.800781 C 60.601562 68.117188 61.175781 67.558594 61.886719 67.558594 L 65.984375 67.558594 C 66.691406 67.558594 67.269531 68.117188 67.269531 68.800781 L 67.269531 73.722656 C 67.269531 74.40625 66.691406 74.964844 65.984375 74.964844 Z M 62.050781 73.511719 L 65.816406 73.511719 L 65.816406 69.011719 L 62.050781 69.011719 Z M 62.050781 73.511719"/><g clip-path="url(#a)"><path d="M 72.019531 69.011719 L 2.875 69.011719 C 1.667969 69.011719 0.691406 68.03125 0.691406 66.824219 L 0.691406 61.097656 C 0.691406 59.890625 1.667969 58.910156 2.875 58.910156 L 72.019531 58.910156 C 73.222656 58.910156 74.203125 59.890625 74.203125 61.097656 L 74.203125 66.824219 C 74.203125 68.03125 73.222656 69.011719 72.019531 69.011719 Z M 2.875 60.363281 C 2.46875 60.363281 2.140625 60.691406 2.140625 61.097656 L 2.140625 66.824219 C 2.140625 67.230469 2.46875 67.558594 2.875 67.558594 L 72.019531 67.558594 C 72.421875 67.558594 72.753906 67.230469 72.753906 66.824219 L 72.753906 61.097656 C 72.753906 60.691406 72.421875 60.363281 72.019531 60.363281 Z M 2.875 60.363281"/></g><path d="M 42.34375 59.675781 C 42.046875 59.675781 41.757812 59.585938 41.511719 59.417969 C 41.183594 59.195312 40.960938 58.855469 40.890625 58.464844 L 33.753906 20.371094 C 33.601562 19.566406 34.132812 18.789062 34.9375 18.636719 L 42.410156 17.230469 C 42.800781 17.160156 43.195312 17.242188 43.523438 17.464844 C 43.847656 17.6875 44.070312 18.027344 44.140625 18.417969 L 45.632812 26.363281 C 45.707031 26.757812 45.445312 27.136719 45.050781 27.210938 C 44.660156 27.285156 44.277344 27.023438 44.207031 26.628906 L 42.714844 18.683594 C 42.714844 18.671875 42.695312 18.65625 42.679688 18.660156 L 35.203125 20.066406 C 35.1875 20.066406 35.175781 20.085938 35.179688 20.101562 L 42.316406 58.199219 C 42.316406 58.214844 42.335938 58.222656 42.351562 58.222656 L 49.828125 56.816406 C 49.84375 56.8125 49.855469 56.796875 49.851562 56.78125 L 45.050781 31.136719 C 44.976562 30.742188 45.234375 30.363281 45.628906 30.289062 C 46.019531 30.214844 46.402344 30.472656 46.476562 30.867188 L 51.277344 56.511719 C 51.351562 56.902344 51.269531 57.296875 51.042969 57.625 C 50.820312 57.953125 50.484375 58.171875 50.09375 58.246094 L 42.621094 59.648438 C 42.527344 59.667969 42.433594 59.675781 42.34375 59.675781 Z M 42.34375 59.675781"/><path d="M 35.636719 27.222656 C 35.292969 27.222656 34.992188 26.980469 34.925781 26.632812 L 34.183594 22.679688 C 34.148438 22.488281 34.191406 22.292969 34.300781 22.132812 C 34.40625 21.976562 34.574219 21.867188 34.765625 21.832031 L 43.726562 20.144531 C 44.121094 20.070312 44.5 20.332031 44.574219 20.726562 L 45.316406 24.679688 C 45.351562 24.867188 45.308594 25.0625 45.203125 25.222656 C 45.09375 25.382812 44.925781 25.492188 44.734375 25.527344 L 35.773438 27.210938 C 35.726562 27.21875 35.683594 27.222656 35.636719 27.222656 Z M 35.746094 23.125 L 36.21875 25.648438 L 43.753906 24.230469 L 43.28125 21.707031 Z M 35.746094 23.125"/><path d="M 41.078125 56.273438 C 40.933594 56.273438 40.792969 56.230469 40.671875 56.144531 C 40.511719 56.039062 40.402344 55.871094 40.367188 55.679688 L 39.625 51.726562 C 39.550781 51.332031 39.8125 50.953125 40.207031 50.878906 L 49.171875 49.195312 C 49.359375 49.160156 49.554688 49.199219 49.714844 49.308594 C 49.871094 49.417969 49.980469 49.585938 50.015625 49.773438 L 50.757812 53.726562 C 50.832031 54.121094 50.570312 54.5 50.179688 54.574219 L 41.214844 56.261719 C 41.167969 56.269531 41.125 56.273438 41.078125 56.273438 Z M 41.1875 52.175781 L 41.660156 54.699219 L 49.199219 53.28125 L 48.726562 50.757812 Z M 41.1875 52.175781"/><path d="M 44.105469 49.785156 C 43.429688 49.785156 42.847656 49.304688 42.722656 48.640625 L 39.238281 30.035156 C 39.097656 29.273438 39.597656 28.535156 40.359375 28.394531 L 40.886719 28.292969 C 40.972656 28.277344 41.058594 28.269531 41.148438 28.269531 C 41.820312 28.269531 42.402344 28.75 42.527344 29.414062 L 46.011719 48.023438 C 46.15625 48.785156 45.652344 49.519531 44.890625 49.664062 L 44.363281 49.761719 C 44.277344 49.777344 44.191406 49.785156 44.105469 49.785156 Z M 40.671875 29.8125 L 44.140625 48.324219 L 44.578125 48.242188 L 41.109375 29.730469 Z M 40.671875 29.8125"/><path d="M 15.910156 59.675781 C 15.820312 59.675781 15.730469 59.667969 15.640625 59.652344 L 8.160156 58.273438 C 7.355469 58.125 6.824219 57.347656 6.96875 56.542969 L 13.96875 18.421875 C 14.117188 17.617188 14.890625 17.085938 15.695312 17.230469 L 23.175781 18.609375 C 23.980469 18.757812 24.515625 19.535156 24.367188 20.339844 L 22.488281 30.558594 C 22.417969 30.953125 22.039062 31.214844 21.644531 31.140625 C 21.25 31.070312 20.988281 30.691406 21.0625 30.296875 L 22.941406 20.074219 C 22.941406 20.058594 22.929688 20.042969 22.914062 20.039062 L 15.433594 18.660156 C 15.414062 18.65625 15.398438 18.667969 15.394531 18.6875 L 8.398438 56.808594 C 8.394531 56.824219 8.40625 56.839844 8.421875 56.84375 L 15.902344 58.222656 C 15.921875 58.226562 15.9375 58.214844 15.941406 58.195312 L 20.195312 35.019531 C 20.269531 34.625 20.648438 34.367188 21.039062 34.4375 C 21.433594 34.511719 21.695312 34.890625 21.621094 35.285156 L 17.367188 58.460938 C 17.234375 59.175781 16.609375 59.675781 15.910156 59.675781 Z M 15.910156 59.675781"/><path d="M 22.503906 27.199219 C 22.460938 27.199219 22.414062 27.195312 22.371094 27.1875 L 13.402344 25.535156 C 13.210938 25.5 13.042969 25.390625 12.933594 25.230469 C 12.824219 25.074219 12.785156 24.878906 12.820312 24.6875 L 13.546875 20.734375 C 13.617188 20.339844 14 20.078125 14.390625 20.148438 L 23.359375 21.804688 C 23.550781 21.835938 23.71875 21.945312 23.828125 22.105469 C 23.933594 22.265625 23.976562 22.460938 23.941406 22.648438 L 23.214844 26.605469 C 23.152344 26.953125 22.847656 27.199219 22.503906 27.199219 Z M 14.378906 24.234375 L 21.921875 25.625 L 22.382812 23.101562 L 14.839844 21.710938 Z M 14.378906 24.234375"/><path d="M 17.167969 56.265625 C 17.121094 56.265625 17.078125 56.261719 17.035156 56.253906 L 8.0625 54.601562 C 7.875 54.566406 7.707031 54.457031 7.597656 54.300781 C 7.488281 54.140625 7.445312 53.945312 7.480469 53.757812 L 8.207031 49.800781 C 8.28125 49.40625 8.660156 49.144531 9.050781 49.21875 L 18.023438 50.871094 C 18.210938 50.90625 18.378906 51.015625 18.488281 51.171875 C 18.597656 51.332031 18.640625 51.527344 18.605469 51.71875 L 17.878906 55.671875 C 17.816406 56.023438 17.507812 56.265625 17.167969 56.265625 Z M 9.039062 53.304688 L 16.582031 54.695312 L 17.046875 52.167969 L 9.503906 50.78125 Z M 9.039062 53.304688"/><path d="M 32.671875 59.675781 L 25.109375 59.675781 C 24.292969 59.675781 23.632812 59.011719 23.632812 58.195312 L 23.632812 19.664062 C 23.632812 18.847656 24.292969 18.183594 25.109375 18.183594 L 32.671875 18.183594 C 33.484375 18.183594 34.148438 18.847656 34.148438 19.664062 L 34.148438 27.257812 C 34.148438 27.65625 33.824219 27.984375 33.421875 27.984375 C 33.023438 27.984375 32.699219 27.65625 32.699219 27.257812 L 32.699219 19.664062 C 32.699219 19.648438 32.683594 19.636719 32.671875 19.636719 L 25.109375 19.636719 C 25.09375 19.636719 25.082031 19.648438 25.082031 19.664062 L 25.082031 58.195312 C 25.082031 58.210938 25.09375 58.222656 25.109375 58.222656 L 32.671875 58.222656 C 32.6875 58.222656 32.699219 58.210938 32.699219 58.195312 L 32.699219 32.34375 C 32.699219 31.941406 33.023438 31.617188 33.421875 31.617188 C 33.824219 31.617188 34.148438 31.941406 34.148438 32.34375 L 34.148438 58.195312 C 34.148438 59.011719 33.484375 59.675781 32.671875 59.675781 Z M 32.671875 59.675781"/><path d="M 30.261719 43.980469 L 27.492188 43.980469 C 27.089844 43.980469 26.765625 43.65625 26.765625 43.253906 L 26.765625 23.679688 C 26.765625 23.277344 27.089844 22.953125 27.492188 22.953125 L 30.261719 22.953125 C 30.664062 22.953125 30.988281 23.277344 30.988281 23.679688 L 30.988281 43.253906 C 30.988281 43.65625 30.664062 43.980469 30.261719 43.980469 Z M 28.214844 42.527344 L 29.539062 42.527344 L 29.539062 24.40625 L 28.214844 24.40625 Z M 28.214844 42.527344"/><path d="M 28.875 53.644531 C 26.832031 53.644531 25.171875 51.980469 25.171875 49.933594 C 25.171875 47.886719 26.832031 46.222656 28.875 46.222656 C 30.917969 46.222656 32.582031 47.886719 32.582031 49.933594 C 32.582031 51.980469 30.917969 53.644531 28.875 53.644531 Z M 28.875 47.675781 C 27.632812 47.675781 26.621094 48.6875 26.621094 49.933594 C 26.621094 51.179688 27.632812 52.191406 28.875 52.191406 C 30.121094 52.191406 31.132812 51.179688 31.132812 49.933594 C 31.132812 48.6875 30.121094 47.675781 28.875 47.675781 Z M 28.875 47.675781"/><path d="M 33.421875 55.625 L 24.355469 55.625 C 23.957031 55.625 23.632812 55.296875 23.632812 54.898438 C 23.632812 54.496094 23.957031 54.171875 24.355469 54.171875 L 33.421875 54.171875 C 33.824219 54.171875 34.148438 54.496094 34.148438 54.898438 C 34.148438 55.296875 33.824219 55.625 33.421875 55.625 Z M 33.421875 55.625"/><path d="M 66.820312 59.675781 L 55.832031 59.675781 C 54.832031 59.675781 54.015625 58.859375 54.015625 57.855469 L 54.015625 1.859375 C 54.015625 0.855469 54.832031 0.0351562 55.832031 0.0351562 L 66.820312 0.0351562 C 67.824219 0.0351562 68.640625 0.855469 68.640625 1.859375 L 68.640625 13.738281 C 68.640625 14.140625 68.316406 14.464844 67.914062 14.464844 C 67.515625 14.464844 67.191406 14.140625 67.191406 13.738281 L 67.191406 1.859375 C 67.191406 1.65625 67.023438 1.488281 66.820312 1.488281 L 55.832031 1.488281 C 55.628906 1.488281 55.464844 1.65625 55.464844 1.859375 L 55.464844 57.855469 C 55.464844 58.058594 55.628906 58.222656 55.832031 58.222656 L 66.820312 58.222656 C 67.023438 58.222656 67.191406 58.058594 67.191406 57.855469 L 67.191406 19.191406 C 67.191406 18.789062 67.515625 18.464844 67.914062 18.464844 C 68.316406 18.464844 68.640625 18.789062 68.640625 19.191406 L 68.640625 57.855469 C 68.640625 58.859375 67.824219 59.675781 66.820312 59.675781 Z M 66.820312 59.675781"/><path d="M 67.914062 11.789062 L 54.738281 11.789062 C 54.339844 11.789062 54.011719 11.460938 54.011719 11.0625 L 54.011719 5.253906 C 54.011719 4.851562 54.339844 4.527344 54.738281 4.527344 L 67.914062 4.527344 C 68.316406 4.527344 68.640625 4.851562 68.640625 5.253906 L 68.640625 11.0625 C 68.640625 11.460938 68.316406 11.789062 67.914062 11.789062 Z M 55.464844 10.335938 L 67.191406 10.335938 L 67.191406 5.980469 L 55.464844 5.980469 Z M 55.464844 10.335938"/><path d="M 67.914062 54.488281 L 54.738281 54.488281 C 54.339844 54.488281 54.011719 54.160156 54.011719 53.757812 L 54.011719 49.933594 C 54.011719 49.53125 54.339844 49.207031 54.738281 49.207031 L 67.914062 49.207031 C 68.316406 49.207031 68.640625 49.53125 68.640625 49.933594 L 68.640625 53.757812 C 68.640625 54.160156 68.316406 54.488281 67.914062 54.488281 Z M 55.464844 53.03125 L 67.191406 53.03125 L 67.191406 50.660156 L 55.464844 50.660156 Z M 55.464844 53.03125"/><path d="M 61.328125 23.832031 C 58.621094 23.832031 56.417969 21.625 56.417969 18.910156 C 56.417969 16.199219 58.621094 13.992188 61.328125 13.992188 C 64.035156 13.992188 66.238281 16.199219 66.238281 18.910156 C 66.238281 21.625 64.035156 23.832031 61.328125 23.832031 Z M 61.328125 15.445312 C 59.417969 15.445312 57.867188 17 57.867188 18.910156 C 57.867188 20.820312 59.417969 22.378906 61.328125 22.378906 C 63.234375 22.378906 64.789062 20.820312 64.789062 18.910156 C 64.789062 17 63.234375 15.445312 61.328125 15.445312 Z M 61.328125 15.445312"/></svg>