<svg xmlns="http://www.w3.org/2000/svg" width="75" viewBox="0 0 75 75" height="75" version="1.0"><defs><clipPath id="a"><path d="M 0.0273438 9.066406 L 75 9.066406 L 75 66.066406 L 0.0273438 66.066406 Z M 0.0273438 9.066406"/></clipPath></defs><path d="M 54.761719 39.367188 C 50.363281 39.367188 46.773438 35.769531 46.773438 31.363281 C 46.773438 26.960938 50.363281 23.363281 54.761719 23.363281 C 59.160156 23.363281 62.75 26.960938 62.75 31.363281 C 62.75 35.769531 59.160156 39.367188 54.761719 39.367188 Z M 54.761719 25.160156 C 51.351562 25.160156 48.566406 27.949219 48.566406 31.363281 C 48.566406 34.78125 51.351562 37.566406 54.761719 37.566406 C 58.171875 37.566406 60.953125 34.78125 60.953125 31.363281 C 60.953125 27.949219 58.171875 25.160156 54.761719 25.160156 Z M 54.761719 25.160156"/><path d="M 69.390625 50.785156 L 63.378906 39.996094 C 64.003906 39.816406 64.632812 39.546875 65.082031 38.917969 C 65.621094 38.109375 65.621094 37.117188 65.53125 36.21875 C 65.53125 35.679688 65.441406 35.230469 65.53125 34.871094 C 65.621094 34.601562 65.980469 34.152344 66.25 33.792969 C 66.789062 33.074219 67.503906 32.355469 67.503906 31.273438 C 67.503906 30.195312 66.878906 29.476562 66.25 28.757812 C 65.980469 28.398438 65.621094 28.039062 65.53125 27.679688 C 65.441406 27.320312 65.441406 26.871094 65.53125 26.328125 C 65.621094 25.429688 65.621094 24.441406 65.082031 23.632812 C 64.453125 22.824219 63.558594 22.554688 62.660156 22.375 C 62.210938 22.285156 61.671875 22.105469 61.402344 21.925781 C 61.132812 21.746094 60.863281 21.296875 60.59375 20.847656 C 60.144531 20.125 59.609375 19.226562 58.621094 18.957031 C 57.722656 18.6875 56.824219 19.046875 56.015625 19.316406 C 55.570312 19.496094 55.03125 19.675781 54.671875 19.675781 C 54.3125 19.675781 53.863281 19.496094 53.324219 19.316406 C 52.515625 18.957031 51.621094 18.597656 50.722656 18.957031 C 49.734375 19.226562 49.195312 20.125 48.746094 20.847656 C 48.476562 21.296875 48.207031 21.65625 47.941406 21.925781 C 47.671875 22.105469 47.132812 22.285156 46.683594 22.375 C 45.785156 22.554688 44.886719 22.824219 44.257812 23.632812 C 43.722656 24.441406 43.722656 25.429688 43.8125 26.328125 C 43.8125 26.871094 43.902344 27.320312 43.8125 27.679688 C 43.722656 27.949219 43.363281 28.398438 43.09375 28.757812 C 42.554688 29.476562 41.835938 30.195312 41.835938 31.273438 C 41.835938 32.265625 42.464844 33.074219 43.09375 33.792969 C 43.363281 34.152344 43.722656 34.511719 43.8125 34.871094 C 43.902344 35.230469 43.902344 35.679688 43.8125 36.21875 C 43.722656 37.117188 43.722656 38.109375 44.257812 38.917969 C 44.796875 39.636719 45.605469 39.90625 46.414062 40.085938 L 40.488281 50.785156 C 40.308594 51.054688 40.308594 51.414062 40.488281 51.683594 C 40.667969 51.953125 40.9375 52.132812 41.296875 52.132812 L 45.15625 51.863281 L 46.953125 55.28125 C 47.132812 55.550781 47.402344 55.730469 47.761719 55.730469 C 48.117188 55.730469 48.386719 55.550781 48.566406 55.28125 L 55.03125 43.863281 L 61.3125 55.191406 C 61.492188 55.460938 61.761719 55.640625 62.121094 55.640625 C 62.480469 55.640625 62.75 55.460938 62.929688 55.191406 L 64.722656 51.773438 L 68.582031 52.042969 C 68.941406 52.042969 69.210938 51.863281 69.390625 51.59375 C 69.570312 51.414062 69.570312 51.054688 69.390625 50.785156 Z M 45.695312 36.308594 C 45.695312 35.679688 45.785156 34.960938 45.605469 34.332031 C 45.425781 33.703125 44.976562 33.164062 44.527344 32.714844 C 44.167969 32.265625 43.722656 31.722656 43.722656 31.363281 C 43.722656 31.003906 44.167969 30.464844 44.527344 30.015625 C 44.976562 29.476562 45.425781 29.027344 45.605469 28.398438 C 45.785156 27.769531 45.785156 27.050781 45.695312 26.417969 C 45.695312 25.789062 45.605469 25.160156 45.785156 24.890625 C 45.964844 24.621094 46.59375 24.441406 47.132812 24.351562 C 47.761719 24.171875 48.476562 23.992188 49.015625 23.632812 C 49.554688 23.273438 49.914062 22.644531 50.273438 22.105469 C 50.632812 21.566406 50.902344 21.027344 51.261719 20.9375 C 51.351562 20.9375 51.351562 20.9375 51.441406 20.9375 C 51.800781 20.9375 52.246094 21.117188 52.695312 21.296875 C 53.324219 21.566406 53.953125 21.835938 54.671875 21.835938 C 55.390625 21.835938 56.015625 21.566406 56.644531 21.296875 C 57.183594 21.117188 57.722656 20.847656 58.082031 20.9375 C 58.441406 21.027344 58.710938 21.566406 59.070312 22.105469 C 59.429688 22.644531 59.785156 23.273438 60.324219 23.632812 C 60.863281 23.992188 61.582031 24.171875 62.210938 24.351562 C 62.839844 24.53125 63.378906 24.621094 63.554688 24.890625 C 63.734375 25.160156 63.734375 25.789062 63.644531 26.417969 C 63.644531 27.050781 63.554688 27.769531 63.734375 28.398438 C 63.914062 29.027344 64.363281 29.566406 64.8125 30.015625 C 65.171875 30.464844 65.621094 31.003906 65.621094 31.363281 C 65.621094 31.722656 65.171875 32.265625 64.8125 32.714844 C 64.363281 33.253906 63.914062 33.703125 63.734375 34.332031 C 63.554688 34.960938 63.554688 35.679688 63.644531 36.308594 C 63.644531 36.9375 63.734375 37.566406 63.554688 37.839844 C 63.378906 38.109375 62.75 38.289062 62.210938 38.378906 C 61.582031 38.558594 60.863281 38.738281 60.324219 39.097656 C 59.785156 39.457031 59.429688 40.085938 59.070312 40.625 C 58.710938 41.164062 58.441406 41.703125 58.082031 41.792969 C 57.8125 41.882812 57.183594 41.613281 56.644531 41.433594 C 56.195312 41.253906 55.660156 41.074219 55.210938 40.984375 C 55.03125 40.984375 54.851562 40.894531 54.671875 40.894531 C 53.953125 40.894531 53.324219 41.164062 52.695312 41.433594 C 52.15625 41.613281 51.621094 41.882812 51.261719 41.792969 C 50.902344 41.703125 50.632812 41.164062 50.273438 40.625 C 49.914062 40.085938 49.554688 39.457031 49.015625 39.097656 C 48.476562 38.738281 47.761719 38.558594 47.132812 38.378906 C 46.503906 38.199219 45.964844 38.109375 45.785156 37.839844 C 45.605469 37.566406 45.695312 36.9375 45.695312 36.308594 Z M 47.941406 52.941406 L 46.59375 50.515625 C 46.414062 50.246094 46.054688 50.066406 45.785156 50.066406 L 43.003906 50.15625 L 48.207031 40.714844 C 48.386719 40.894531 48.65625 41.253906 48.835938 41.613281 C 49.285156 42.332031 49.824219 43.230469 50.8125 43.5 C 51.082031 43.59375 51.261719 43.59375 51.53125 43.59375 C 52.15625 43.59375 52.875 43.320312 53.414062 43.050781 Z M 64.273438 49.976562 C 63.914062 49.976562 63.558594 50.15625 63.46875 50.425781 L 62.121094 52.851562 L 56.914062 43.410156 C 57.453125 43.59375 58.082031 43.683594 58.710938 43.5 C 59.695312 43.230469 60.234375 42.332031 60.683594 41.613281 C 60.953125 41.164062 61.222656 40.804688 61.492188 40.535156 C 61.582031 40.445312 61.671875 40.445312 61.761719 40.445312 L 67.148438 50.15625 Z M 64.273438 49.976562"/><g clip-path="url(#a)"><path d="M 70.917969 66.066406 L 4.140625 66.066406 C 1.984375 66.066406 0.28125 64.359375 0.28125 62.203125 L 0.28125 12.933594 C 0.28125 10.777344 1.984375 9.066406 4.140625 9.066406 L 70.917969 9.066406 C 73.070312 9.066406 74.777344 10.777344 74.777344 12.933594 L 74.777344 62.203125 C 74.777344 64.269531 72.980469 66.066406 70.917969 66.066406 Z M 4.140625 10.867188 C 2.972656 10.867188 2.074219 11.765625 2.074219 12.933594 L 2.074219 62.203125 C 2.074219 63.371094 2.972656 64.269531 4.140625 64.269531 L 70.917969 64.269531 C 72.082031 64.269531 72.980469 63.371094 72.980469 62.203125 L 72.980469 12.933594 C 72.980469 11.765625 72.082031 10.867188 70.917969 10.867188 Z M 4.140625 10.867188"/></g><path d="M 67.773438 62.292969 L 7.550781 62.292969 C 5.664062 62.292969 4.140625 60.765625 4.140625 58.875 L 4.140625 16.261719 C 4.140625 14.371094 5.664062 12.84375 7.550781 12.84375 L 67.773438 12.84375 C 69.660156 12.84375 71.1875 14.371094 71.1875 16.261719 L 71.1875 58.875 C 71.1875 60.765625 69.660156 62.292969 67.773438 62.292969 Z M 7.550781 13.742188 C 6.203125 13.742188 5.039062 14.910156 5.039062 16.261719 L 5.039062 58.875 C 5.039062 60.222656 6.203125 61.394531 7.550781 61.394531 L 67.773438 61.394531 C 69.121094 61.394531 70.289062 60.222656 70.289062 58.875 L 70.289062 16.261719 C 70.289062 14.910156 69.121094 13.742188 67.773438 13.742188 Z M 7.550781 13.742188"/><path d="M 39.773438 22.464844 L 10.691406 22.464844 C 10.152344 22.464844 9.792969 22.105469 9.792969 21.566406 C 9.792969 21.027344 10.152344 20.664062 10.691406 20.664062 L 39.683594 20.664062 C 40.21875 20.664062 40.578125 21.027344 40.578125 21.566406 C 40.578125 22.105469 40.21875 22.464844 39.773438 22.464844 Z M 39.773438 22.464844"/><path d="M 36.449219 44.941406 L 10.691406 44.941406 C 10.152344 44.941406 9.792969 44.582031 9.792969 44.042969 C 9.792969 43.5 10.152344 43.140625 10.691406 43.140625 L 36.449219 43.140625 C 36.988281 43.140625 37.347656 43.5 37.347656 44.042969 C 37.347656 44.582031 36.988281 44.941406 36.449219 44.941406 Z M 36.449219 44.941406"/><path d="M 36.449219 34.601562 L 10.691406 34.601562 C 10.152344 34.601562 9.792969 34.242188 9.792969 33.703125 C 9.792969 33.164062 10.152344 32.804688 10.691406 32.804688 L 36.449219 32.804688 C 36.988281 32.804688 37.347656 33.164062 37.347656 33.703125 C 37.347656 34.242188 36.988281 34.601562 36.449219 34.601562 Z M 36.449219 34.601562"/><path d="M 24.335938 51.773438 L 10.691406 51.773438 C 10.152344 51.773438 9.792969 51.414062 9.792969 50.875 C 9.792969 50.335938 10.152344 49.976562 10.691406 49.976562 L 24.335938 49.976562 C 24.871094 49.976562 25.230469 50.335938 25.230469 50.875 C 25.230469 51.414062 24.871094 51.773438 24.335938 51.773438 Z M 24.335938 51.773438"/></svg>