<svg xmlns="http://www.w3.org/2000/svg" width="75" viewBox="0 0 75 75" height="75" version="1.0"><defs><clipPath id="a"><path d="M 0.214844 6.097656 L 67 6.097656 L 67 73.363281 L 0.214844 73.363281 Z M 0.214844 6.097656"/></clipPath></defs><g clip-path="url(#a)"><path fill="#ffffff" d="M 56.667969 73.363281 L 10.179688 73.363281 C 4.675781 73.367188 0.214844 68.890625 0.214844 63.367188 L 0.214844 16.703125 C 0.214844 11.183594 4.675781 6.707031 10.179688 6.707031 L 41.140625 6.707031 C 41.632812 6.707031 42.035156 7.117188 42.03125 7.617188 C 42.03125 8.113281 41.628906 8.511719 41.140625 8.519531 L 10.179688 8.519531 C 5.671875 8.519531 2.023438 12.183594 2.023438 16.703125 L 2.023438 63.367188 C 2.023438 67.886719 5.671875 71.550781 10.179688 71.554688 L 56.667969 71.554688 C 61.167969 71.550781 64.820312 67.886719 64.820312 63.367188 L 64.820312 32.007812 C 64.84375 31.511719 65.265625 31.121094 65.769531 31.148438 C 66.230469 31.175781 66.597656 31.546875 66.617188 32.007812 L 66.617188 63.367188 C 66.617188 68.882812 62.164062 73.363281 56.667969 73.363281"/></g><path fill="#ffffff" d="M 30.378906 43.539062 C 27.945312 42.363281 25.839844 40.617188 24.21875 38.445312 C 23.214844 37.089844 21.304688 36.820312 19.960938 37.832031 C 19.953125 37.832031 19.945312 37.835938 19.945312 37.835938 C 18.304688 39.085938 16.613281 40.257812 14.867188 41.351562 C 13.441406 42.25 13.007812 44.136719 13.902344 45.5625 C 13.996094 45.710938 14.09375 45.847656 14.214844 45.972656 C 18.476562 50.785156 22.300781 55.976562 25.628906 61.480469 C 26.179688 62.402344 27.167969 62.957031 28.238281 62.957031 L 35.058594 62.957031 C 36.324219 62.957031 37.464844 62.167969 37.910156 60.984375 C 45.273438 41.527344 56.171875 23.621094 70.058594 8.175781 C 71.058594 7.109375 72.199219 6.175781 73.4375 5.394531 C 74.445312 4.761719 74.75 3.425781 74.117188 2.40625 C 73.808594 1.914062 73.3125 1.566406 72.738281 1.441406 C 65.792969 -0.0625 58.597656 2.503906 54.15625 8.074219 C 45.613281 18.792969 38.320312 30.449219 32.421875 42.824219 C 32.058594 43.585938 31.148438 43.910156 30.390625 43.546875 C 30.386719 43.546875 30.378906 43.546875 30.378906 43.539062"/></svg>