<svg xmlns="http://www.w3.org/2000/svg" width="75" viewBox="0 0 75 75" height="75" version="1.0"><path fill="#100F0D" d="M 41.496094 26.964844 L 41.496094 25.632812 C 41.496094 24.898438 42.09375 24.300781 42.832031 24.300781 C 43.566406 24.300781 44.164062 24.898438 44.164062 25.632812 C 44.164062 26.367188 43.566406 26.964844 42.832031 26.964844 Z M 53.019531 31.980469 C 50.949219 35.078125 49.183594 38.652344 47.46875 43.230469 L 44.570312 50.949219 L 41.496094 50.949219 L 41.496094 29.628906 L 42.832031 29.628906 C 45.035156 29.628906 46.828125 27.835938 46.828125 25.632812 C 46.828125 23.429688 45.035156 21.636719 42.832031 21.636719 C 40.625 21.636719 38.832031 23.429688 38.832031 25.632812 L 38.832031 26.964844 L 36.167969 26.964844 L 36.167969 25.632812 C 36.167969 23.429688 34.375 21.636719 32.171875 21.636719 C 29.964844 21.636719 28.171875 23.429688 28.171875 25.632812 C 28.171875 27.835938 29.964844 29.628906 32.171875 29.628906 L 33.503906 29.628906 L 33.503906 50.949219 L 30.429688 50.949219 L 27.507812 43.160156 C 26.136719 39.503906 24.289062 35.835938 21.523438 31.269531 C 19.757812 28.347656 18.828125 24.984375 18.84375 21.554688 C 18.886719 11.769531 26.863281 3.445312 36.625 3 C 41.792969 2.765625 46.667969 4.589844 50.386719 8.144531 C 54.105469 11.699219 56.15625 16.488281 56.15625 21.636719 C 56.15625 25.335938 55.070312 28.914062 53.019531 31.980469 Z M 36.167969 50.949219 L 36.167969 29.628906 L 38.832031 29.628906 L 38.832031 50.949219 Z M 33.503906 26.964844 L 32.171875 26.964844 C 31.433594 26.964844 30.835938 26.367188 30.835938 25.632812 C 30.835938 24.898438 31.433594 24.300781 32.171875 24.300781 C 32.90625 24.300781 33.503906 24.898438 33.503906 25.632812 Z M 36.503906 0.335938 C 25.34375 0.847656 16.226562 10.359375 16.179688 21.542969 C 16.164062 25.464844 17.222656 29.304688 19.246094 32.648438 C 21.921875 37.070312 23.699219 40.601562 25.011719 44.097656 L 28.257812 52.753906 C 28.453125 53.269531 28.949219 53.617188 29.503906 53.617188 L 45.496094 53.617188 C 46.050781 53.617188 46.546875 53.269531 46.742188 52.753906 L 49.960938 44.167969 C 51.605469 39.785156 53.28125 36.382812 55.234375 33.460938 C 57.582031 29.953125 58.820312 25.863281 58.820312 21.636719 C 58.820312 15.753906 56.480469 10.28125 52.226562 6.21875 C 47.976562 2.15625 42.398438 0.0703125 36.503906 0.335938"/><path fill="#100F0D" d="M 36.75 5.660156 C 35 5.742188 33.285156 6.117188 31.65625 6.769531 L 32.648438 9.242188 C 34.003906 8.699219 35.421875 8.390625 36.875 8.324219 C 42.121094 8.089844 47.011719 10.957031 49.382812 15.636719 L 51.761719 14.433594 C 48.917969 8.816406 43.027344 5.386719 36.75 5.660156"/><path fill="#100F0D" d="M 50.769531 20.484375 L 53.425781 20.242188 C 53.335938 19.242188 53.148438 18.238281 52.871094 17.261719 L 50.308594 17.992188 C 50.539062 18.808594 50.695312 19.644531 50.769531 20.484375"/><path fill="#100F0D" d="M 45.496094 56.28125 L 29.503906 56.28125 C 28.769531 56.28125 28.171875 56.878906 28.171875 57.613281 C 28.171875 58.351562 28.769531 58.945312 29.503906 58.945312 L 45.496094 58.945312 C 46.230469 58.945312 46.828125 58.351562 46.828125 57.613281 C 46.828125 56.878906 46.230469 56.28125 45.496094 56.28125"/><path fill="#100F0D" d="M 45.496094 61.613281 L 29.503906 61.613281 C 28.769531 61.613281 28.171875 62.207031 28.171875 62.945312 C 28.171875 63.679688 28.769531 64.277344 29.503906 64.277344 L 45.496094 64.277344 C 46.230469 64.277344 46.828125 63.679688 46.828125 62.945312 C 46.828125 62.207031 46.230469 61.613281 45.496094 61.613281"/><path fill="#100F0D" d="M 37.5 72.273438 C 35.765625 72.273438 34.300781 71.15625 33.746094 69.605469 L 41.253906 69.605469 C 40.699219 71.15625 39.234375 72.273438 37.5 72.273438 Z M 45.496094 66.941406 L 29.503906 66.941406 C 28.769531 66.941406 28.171875 67.539062 28.171875 68.273438 C 28.171875 69.011719 28.769531 69.605469 29.503906 69.605469 L 30.972656 69.605469 C 31.589844 72.644531 34.28125 74.9375 37.5 74.9375 C 40.71875 74.9375 43.410156 72.644531 44.027344 69.605469 L 45.496094 69.605469 C 46.230469 69.605469 46.828125 69.011719 46.828125 68.273438 C 46.828125 67.539062 46.230469 66.941406 45.496094 66.941406"/><path fill="#100F0D" d="M 73.480469 17.636719 L 65.484375 17.636719 C 64.746094 17.636719 64.152344 18.234375 64.152344 18.96875 C 64.152344 19.707031 64.746094 20.300781 65.484375 20.300781 L 73.480469 20.300781 C 74.214844 20.300781 74.8125 19.707031 74.8125 18.96875 C 74.8125 18.234375 74.214844 17.636719 73.480469 17.636719"/><path fill="#100F0D" d="M 74.074219 29.769531 L 66.078125 25.773438 C 65.421875 25.445312 64.621094 25.710938 64.292969 26.367188 C 63.960938 27.027344 64.230469 27.828125 64.886719 28.15625 L 72.882812 32.15625 C 73.074219 32.25 73.277344 32.296875 73.476562 32.296875 C 73.96875 32.296875 74.4375 32.027344 74.671875 31.558594 C 75 30.902344 74.734375 30.101562 74.074219 29.769531"/><path fill="#100F0D" d="M 64.292969 11.570312 C 64.527344 12.039062 64.996094 12.308594 65.484375 12.308594 C 65.683594 12.308594 65.890625 12.261719 66.078125 12.167969 L 74.074219 8.167969 C 74.734375 7.839844 75 7.039062 74.671875 6.382812 C 74.339844 5.722656 73.539062 5.457031 72.882812 5.785156 L 64.886719 9.78125 C 64.230469 10.113281 63.960938 10.914062 64.292969 11.570312"/><path fill="#100F0D" d="M 9.515625 17.636719 L 1.519531 17.636719 C 0.785156 17.636719 0.1875 18.234375 0.1875 18.96875 C 0.1875 19.707031 0.785156 20.300781 1.519531 20.300781 L 9.515625 20.300781 C 10.253906 20.300781 10.847656 19.707031 10.847656 18.96875 C 10.847656 18.234375 10.253906 17.636719 9.515625 17.636719"/><path fill="#100F0D" d="M 8.921875 25.773438 L 0.925781 29.769531 C 0.265625 30.101562 0 30.902344 0.328125 31.558594 C 0.5625 32.027344 1.035156 32.296875 1.523438 32.296875 C 1.722656 32.296875 1.925781 32.25 2.117188 32.15625 L 10.113281 28.15625 C 10.769531 27.828125 11.039062 27.027344 10.707031 26.367188 C 10.378906 25.710938 9.582031 25.445312 8.921875 25.773438"/><path fill="#100F0D" d="M 8.921875 12.167969 C 9.113281 12.261719 9.316406 12.308594 9.515625 12.308594 C 10.003906 12.308594 10.472656 12.039062 10.707031 11.570312 C 11.039062 10.914062 10.769531 10.113281 10.113281 9.78125 L 2.117188 5.785156 C 1.457031 5.457031 0.660156 5.722656 0.328125 6.382812 C 0 7.039062 0.265625 7.839844 0.925781 8.167969 L 8.921875 12.167969"/></svg>