<svg xmlns="http://www.w3.org/2000/svg" width="75" viewBox="0 0 75 75" height="75" version="1.0"><path d="M 37.5 0 C 16.835938 0 0 16.835938 0 37.5 C 0 58.164062 16.835938 75 37.5 75 C 58.164062 75 75 58.164062 75 37.5 C 75 16.835938 58.164062 0 37.5 0 Z M 37.5 68.441406 C 20.445312 68.441406 6.558594 54.554688 6.558594 37.5 C 6.558594 20.445312 20.445312 6.558594 37.5 6.558594 C 54.554688 6.558594 68.441406 20.445312 68.441406 37.5 C 68.441406 54.554688 54.554688 68.441406 37.5 68.441406 Z M 37.5 68.441406"/><path d="M 39.03125 33.78125 L 39.03125 25.910156 C 40.34375 26.457031 41.109375 27.550781 41.4375 29.082031 L 46.464844 28.425781 C 46.136719 26.457031 45.261719 24.816406 44.058594 23.613281 C 42.855469 22.414062 41.109375 21.648438 39.03125 21.429688 L 39.03125 19.460938 L 36.078125 19.460938 L 36.078125 21.429688 C 33.78125 21.648438 31.925781 22.523438 30.613281 24.050781 C 29.191406 25.582031 28.535156 27.332031 28.535156 29.519531 C 28.535156 31.707031 29.191406 33.5625 30.394531 34.984375 C 31.597656 36.40625 33.5625 37.609375 36.1875 38.375 L 36.1875 46.792969 C 35.421875 46.464844 34.765625 45.917969 34.21875 45.152344 C 33.671875 44.386719 33.234375 43.402344 33.015625 42.417969 L 27.660156 43.074219 C 28.097656 45.699219 28.972656 47.777344 30.394531 49.199219 C 31.816406 50.621094 33.671875 51.496094 35.96875 51.820312 L 35.96875 55.429688 L 38.921875 55.429688 L 38.921875 51.710938 C 41.546875 51.386719 43.511719 50.292969 45.042969 48.652344 C 46.574219 47.011719 47.230469 44.933594 47.230469 42.527344 C 47.230469 40.34375 46.683594 38.59375 45.480469 37.171875 C 44.277344 35.75 42.199219 34.65625 39.03125 33.78125 Z M 36.078125 32.90625 C 35.203125 32.582031 34.546875 32.035156 34.109375 31.488281 C 33.671875 30.832031 33.453125 30.175781 33.453125 29.519531 C 33.453125 28.753906 33.671875 27.988281 34.109375 27.441406 C 34.546875 26.894531 35.203125 26.347656 35.96875 26.128906 Z M 41.4375 45.808594 C 40.78125 46.574219 40.015625 47.011719 39.03125 47.230469 L 39.03125 39.46875 C 40.234375 39.796875 41.109375 40.34375 41.65625 41 C 42.199219 41.65625 42.417969 42.417969 42.417969 43.292969 C 42.417969 44.277344 42.09375 45.152344 41.4375 45.808594 Z M 41.4375 45.808594"/></svg>