<svg xmlns="http://www.w3.org/2000/svg" xmlns:xlink="http://www.w3.org/1999/xlink" width="500" zoomAndPan="magnify" viewBox="0 0 375 374.999991" height="500" preserveAspectRatio="xMidYMid meet" version="1.0"><defs><g/></defs><path fill="rgb(100%, 100%, 100%)" d="M 187.066406 -15.671875 L -47.683594 -15.671875 L -165.054688 187.578125 L -47.683594 390.828125 L 187.066406 390.828125 L 304.441406 187.578125 L 187.066406 -15.671875 " fill-opacity="1" fill-rule="nonzero"/><g fill="rgb(72.549438%, 34.118652%, 19.219971%)" fill-opacity="1"><g transform="translate(58.465099, 312.890417)"><g><path d="M 97.300781 -241.109375 L 97.300781 -7.648438 L 52.628906 -7.648438 L 52.628906 -180.832031 C 52.628906 -181.441406 52.933594 -190.929688 42.53125 -187.867188 L 21.417969 -181.75 L 21.417969 -220.300781 Z M 112.597656 -251.207031 C 112.597656 -261.300781 103.726562 -258.546875 102.808594 -258.546875 L 11.628906 -233.765625 C 8.875 -232.847656 6.121094 -229.785156 6.121094 -226.421875 L 6.121094 -171.652344 C 6.121094 -160.941406 14.992188 -164.003906 15.910156 -164.308594 L 37.328125 -170.429688 L 37.328125 0 C 37.328125 3.367188 40.082031 7.648438 44.976562 7.648438 L 104.949219 7.648438 C 108.007812 7.648438 112.597656 4.894531 112.597656 0 Z M 112.597656 -251.207031 "/></g></g></g></svg>