<svg xmlns="http://www.w3.org/2000/svg" xmlns:xlink="http://www.w3.org/1999/xlink" width="500" zoomAndPan="magnify" viewBox="0 0 375 374.999991" height="500" preserveAspectRatio="xMidYMid meet" version="1.0"><defs><g/></defs><path fill="rgb(100%, 100%, 100%)" d="M 187.066406 -15.671875 L -47.683594 -15.671875 L -165.054688 187.578125 L -47.683594 390.828125 L 187.066406 390.828125 L 304.441406 187.578125 L 187.066406 -15.671875 " fill-opacity="1" fill-rule="nonzero"/><g fill="rgb(72.549438%, 34.118652%, 19.219971%)" fill-opacity="1"><g transform="translate(9.179328, 312.890413)"><g><path d="M 107.398438 -216.019531 C 79.859375 -216.019531 63.949219 -183.277344 58.441406 -170.429688 L 23.867188 -187.257812 C 32.128906 -205.308594 56.910156 -249.371094 107.398438 -249.371094 C 188.480469 -249.371094 197.660156 -197.964844 197.660156 -168.285156 C 197.660156 -115.351562 112.292969 -57.21875 111.988281 -56.605469 C 111.988281 -56.605469 102.808594 -42.835938 116.269531 -42.835938 L 202.25 -42.835938 L 202.25 -7.648438 L 20.804688 -7.648438 L 20.804688 -10.710938 C 38.859375 -26.007812 150.84375 -118.71875 150.84375 -168.285156 C 150.84375 -177.160156 148.09375 -216.019531 107.398438 -216.019531 Z M 107.398438 -200.71875 C 133.710938 -200.71875 135.546875 -177.464844 135.546875 -168.285156 C 135.546875 -128.816406 8.875 -20.804688 8.261719 -20.195312 C 6.425781 -18.664062 5.507812 -16.523438 5.507812 -14.378906 L 5.507812 0 C 5.507812 3.367188 8.261719 7.648438 13.15625 7.648438 L 209.898438 7.648438 C 212.957031 7.648438 217.546875 4.894531 217.546875 0 L 217.546875 -50.484375 C 217.546875 -53.546875 214.488281 -58.136719 209.898438 -58.136719 L 139.21875 -58.136719 C 164.921875 -78.636719 212.957031 -121.472656 212.957031 -168.285156 C 212.957031 -201.945312 199.191406 -264.667969 107.398438 -264.667969 C 32.738281 -264.667969 7.039062 -186.03125 7.039062 -185.726562 C 5.8125 -182.667969 7.34375 -178.382812 11.015625 -176.546875 L 59.054688 -153.292969 C 64.867188 -150.539062 68.230469 -154.515625 69.457031 -157.578125 C 70.375 -159.71875 87.507812 -200.71875 107.398438 -200.71875 Z M 107.398438 -200.71875 "/></g></g></g></svg>