<svg xmlns="http://www.w3.org/2000/svg" xmlns:xlink="http://www.w3.org/1999/xlink" width="500" zoomAndPan="magnify" viewBox="0 0 375 374.999991" height="500" preserveAspectRatio="xMidYMid meet" version="1.0"><defs><g/></defs><path fill="rgb(100%, 100%, 100%)" d="M 187.066406 -15.671875 L -47.683594 -15.671875 L -165.054688 187.578125 L -47.683594 390.828125 L 187.066406 390.828125 L 304.441406 187.578125 L 187.066406 -15.671875 " fill-opacity="1" fill-rule="nonzero"/><g fill="rgb(72.549438%, 34.118652%, 19.219971%)" fill-opacity="1"><g transform="translate(13.793004, 312.890387)"><g><path d="M 71.902344 -84.144531 L 69.457031 -89.039062 C 67.316406 -91.179688 63.949219 -91.488281 61.195312 -90.261719 L 7.957031 -64.253906 C 4.894531 -62.726562 2.753906 -59.054688 3.671875 -55.382812 C 3.976562 -54.464844 22.949219 12.238281 106.171875 12.238281 C 163.390625 12.238281 207.449219 -25.089844 207.449219 -78.328125 C 207.449219 -103.417969 196.742188 -123.308594 179.914062 -136.769531 C 190.621094 -148.398438 197.660156 -164.308594 197.660156 -183.585938 C 197.660156 -231.011719 158.1875 -264.667969 107.089844 -264.667969 C 31.210938 -264.667969 16.214844 -204.695312 15.910156 -203.167969 C 15.296875 -200.109375 16.828125 -196.128906 20.195312 -194.601562 L 65.480469 -172.570312 C 74.351562 -168.285156 75.882812 -176.546875 76.1875 -177.769531 C 76.492188 -179.605469 81.695312 -203.167969 106.480469 -203.167969 C 119.332031 -203.167969 130.039062 -193.683594 130.039062 -182.972656 C 130.039062 -168.59375 118.105469 -158.800781 107.398438 -158.800781 L 94.851562 -158.800781 C 91.488281 -158.800781 87.203125 -155.742188 87.203125 -151.152344 L 87.203125 -113.515625 C 87.203125 -101.277344 97.300781 -106.171875 97.300781 -106.171875 C 97.300781 -106.171875 101.277344 -107.703125 105.867188 -107.703125 C 121.777344 -107.703125 134.628906 -95.769531 134.628906 -78.328125 C 134.628906 -61.5 123.613281 -52.628906 105.867188 -52.628906 C 75.574219 -52.628906 72.210938 -82 71.902344 -84.144531 Z M 64.253906 -190.011719 L 32.738281 -205.308594 C 38.246094 -218.773438 55.6875 -249.371094 107.089844 -249.371094 C 151.761719 -249.371094 182.359375 -221.527344 182.359375 -183.585938 C 182.359375 -164.921875 174.710938 -151.457031 162.777344 -141.972656 C 162.777344 -141.972656 153.292969 -135.851562 163.390625 -129.425781 C 181.136719 -118.71875 192.152344 -102.195312 192.152344 -78.328125 C 192.152344 -34.574219 156.964844 -3.058594 106.171875 -3.058594 C 48.34375 -3.058594 27.230469 -38.859375 20.804688 -53.546875 L 59.054688 -72.210938 C 63.03125 -59.054688 74.964844 -37.328125 105.867188 -37.328125 C 130.039062 -37.328125 149.925781 -52.015625 149.925781 -78.328125 C 149.925781 -104.03125 130.039062 -123 105.867188 -123 C 104.644531 -123 102.808594 -122.695312 102.5 -122.695312 L 102.5 -143.503906 L 107.398438 -143.503906 C 126.980469 -143.503906 145.339844 -160.332031 145.339844 -182.972656 C 145.339844 -204.390625 125.753906 -218.464844 106.480469 -218.464844 C 80.472656 -218.464844 68.539062 -200.414062 64.253906 -190.011719 Z M 64.253906 -190.011719 "/></g></g></g></svg>